<?xml version="1.0" encoding="utf-8"?>
<!-- Generator: Adobe Illustrator 16.0.0, SVG Export Plug-In . SVG Version: 6.00 Build 0)  -->
<!DOCTYPE svg PUBLIC "-//W3C//DTD SVG 1.1//EN" "http://www.w3.org/Graphics/SVG/1.1/DTD/svg11.dtd">
<svg version="1.1" id="Layer_1" xmlns="http://www.w3.org/2000/svg" xmlns:xlink="http://www.w3.org/1999/xlink" x="0px" y="0px"
	 width="500px" height="500px" viewBox="6 6 500 500" enable-background="new 6 6 500 500" xml:space="preserve">
<g>
	<g>
		<path fill="#FFFFFF" d="M442.862,97.753c-2.51-33.877-30.892-60.678-65.442-60.678c-31.827,0-58.426,22.74-64.387,52.802
			L6,194.145v277.38h499.805V205.822C505.805,159.37,484.089,122.191,442.862,97.753z M315.227,123.555
			c8.766,25.912,33.323,44.627,62.192,44.627c25.539,0,47.7-14.649,58.548-35.967c20.2,14.789,32.249,33.97,35.981,57.309H120.973
			L315.227,123.555z M473.207,360.427c-7.216-0.9-12.463-2.387-18.186-4.01c-10.145-2.877-21.646-6.142-43.382-6.142
			c-21.733,0-33.233,3.263-43.378,6.142c-9.275,2.632-17.285,4.903-34.482,4.903c-17.201,0-25.212-2.271-34.487-4.903
			c-10.146-2.877-21.646-6.142-43.38-6.142c-21.734,0-33.235,3.263-43.382,6.142c-9.276,2.632-17.288,4.903-34.486,4.903
			c-17.203,0-25.213-2.271-34.488-4.904c-10.148-2.878-21.65-6.141-43.385-6.141c-21.734,0-33.236,3.263-43.385,6.141
			c-5.725,1.624-10.973,3.11-18.193,4.011v-50.363h0.002c11.874-1.12,19.838-3.366,27.087-5.424
			c9.276-2.63,17.288-4.901,34.488-4.901s25.212,2.271,34.488,4.901c10.146,2.879,21.648,6.142,43.383,6.142
			c21.734,0,33.235-3.262,43.382-6.142c9.276-2.63,17.286-4.901,34.486-4.901c17.201,0,25.209,2.271,34.485,4.901
			c10.146,2.879,21.646,6.142,43.38,6.142c21.733,0,33.234-3.262,43.381-6.142c9.274-2.63,17.284-4.901,34.482-4.901
			c17.2,0,25.211,2.271,34.484,4.901c7.25,2.058,15.213,4.304,27.082,5.424v50.363H473.207z"/>
	</g>
</g>
</svg>
