<?xml version="1.0" encoding="utf-8"?>
<!-- Generator: Adobe Illustrator 16.0.0, SVG Export Plug-In . SVG Version: 6.00 Build 0)  -->
<!DOCTYPE svg PUBLIC "-//W3C//DTD SVG 1.1//EN" "http://www.w3.org/Graphics/SVG/1.1/DTD/svg11.dtd">
<svg version="1.1" id="Capa_1" xmlns="http://www.w3.org/2000/svg" xmlns:xlink="http://www.w3.org/1999/xlink" x="0px" y="0px"
	 width="500px" height="500px" viewBox="6 6 500 500" enable-background="new 6 6 500 500" xml:space="preserve">
<g>
	<g>
		<path fill="#FFFFFF" d="M226.371,451.833c-9.754,0.601-19.875,0.934-30.294,0.934c-40.121,0-76.153-4.716-101.751-12.241
			c-2.06-99.341-14.957-164.422-26.471-222.299c-9.147-45.977-17.805-89.739-19.647-144.438
			c28.259,16.648,89.649,24.455,147.854,24.455c58.203,0,119.594-7.79,147.853-24.455c-1.834,54.716-10.5,98.464-19.655,144.438
			c-6.055,30.483-12.465,63.133-17.496,101.573l14.578,8.224c5.142-40.875,11.911-75.002,18.243-106.903
			c10.453-52.478,20.336-102.077,20.336-168.49c-0.002-31.379-84.948-45.632-163.861-45.632c-78.914,0-163.857,14.27-163.857,45.63
			c0,66.429,9.869,116.015,20.32,168.49c12.415,62.421,26.513,133.13,26.513,246.85c0,26.118,60.66,38.027,117.041,38.027
			c25.595,0,52.035-2.482,73.313-7.608C251.486,485.556,237.059,469.595,226.371,451.833z M196.075,22.193
			c95.913,0,148.243,20.08,148.243,30.417c0,10.314-52.313,30.418-148.243,30.418c-95.934,0-148.252-20.106-148.252-30.418
			C47.826,42.273,100.145,22.193,196.075,22.193z"/>
		<path fill="#FFFFFF" d="M391.581,490.448l-28.937-105.417L306.679,479.5C333.705,493.421,363.729,496.614,391.581,490.448z"/>
		<path fill="#FFFFFF" d="M298.548,474.929l55.93-94.453l-108.127,28.222C254.8,435.335,272.629,459.061,298.548,474.929z"/>
		<path fill="#FFFFFF" d="M243.874,399.852l108.135-28.236l-96.904-54.573C240.848,343.395,237.577,372.695,243.874,399.852z"/>
		<path fill="#FFFFFF" d="M468.661,437.232l-96.947-54.541l29.003,105.384C428.036,479.816,452.35,462.448,468.661,437.232z"/>
		<path fill="#FFFFFF" d="M474.296,440.382c-36.926,57.437-114.349,76.671-175.066,42.535
			c-60.702-34.197-82.315-109.145-49.707-169.036l-5.503-3.067c-34.303,62.846-11.662,141.575,52.077,177.453
			c63.703,35.832,145.052,15.599,183.695-44.797L474.296,440.382z"/>
		<path fill="#FFFFFF" d="M328.721,174.288c0-10.33-46.826-30.42-132.646-30.42c-85.828,0-132.643,20.09-132.643,30.42
			c0,10.32,46.815,30.426,132.645,30.426C281.897,204.714,328.721,184.593,328.721,174.288z M196.075,189.862
			c-64.868,0-100.275-13.834-100.275-20.937c0-7.085,35.407-20.903,100.275-20.903c64.867,0,100.246,13.818,100.246,20.903
			C296.324,176.028,260.943,189.862,196.075,189.862z"/>
	</g>
</g>
</svg>
