<?xml version="1.0" encoding="utf-8"?>
<!-- Generator: Adobe Illustrator 16.0.0, SVG Export Plug-In . SVG Version: 6.00 Build 0)  -->
<!DOCTYPE svg PUBLIC "-//W3C//DTD SVG 1.1//EN" "http://www.w3.org/Graphics/SVG/1.1/DTD/svg11.dtd">
<svg version="1.1" id="Capa_1" xmlns="http://www.w3.org/2000/svg" xmlns:xlink="http://www.w3.org/1999/xlink" x="0px" y="0px"
	 width="500px" height="500px" viewBox="6 6 500 500" enable-background="new 6 6 500 500" xml:space="preserve">
<g>
	<path fill="#FFFFFF" d="M346.749,225.284c27.601,14.79,80.764,10.263,121.182-30.165c40.09-40.082,55.247-98.694,17.346-137.848
		l0.03-0.015c-0.18-0.166-0.825-0.81-0.99-0.982c0,0,0,0.015-0.03,0.015c-39.13-37.886-97.734-22.735-137.839,17.347
		c-40.419,40.427-44.947,93.59-30.165,121.189c-3.808,22.602-34.812,47.123-62.623,63.037c-21.447-13.23-48.493-36.612-51.335-83.62
		c2.054-18.778-4.13-38.29-18.5-52.662c-1.318-1.318-5.112-4.527-5.112-4.527L73.946,35.457l-9.543,9.537l113.681,106.647
		l-12.332,12.331L55.617,53.829L45.505,63.935l110.119,110.149l-10.412,10.412L35.093,74.377l-9.214,9.131l109.46,109.467
		l-12.541,12.586L16.442,92.968L6,103.441L92.94,212.99c0,0,2.07,2.121,2.947,2.9c12.653,11.058,28.538,16.274,44.257,15.833
		c0.112,0,0.277,0.029,0.336,0.046c41.394,0.413,66.972,25.577,83.059,47.287c-39.362,39.382-161.52,161.555-161.52,161.555
		l0.029,0.03c-0.12,0.091-0.277,0.195-0.397,0.315c-9.948,9.938-9.948,26.071,0,36.042c0.509,0.494,2.429,2.398,2.916,2.909
		c9.947,9.954,26.104,9.954,36.035,0.015c0.12-0.12,0.224-0.27,0.323-0.403l0.03,0.043c0,0,113.441-113.446,156.934-156.924
		c41.394,41.378,156.131,156.086,156.131,156.086l0.029-0.029c0.089,0.104,0.135,0.254,0.285,0.404
		c9.775,9.76,25.728,9.76,35.517-0.029c9.789-9.806,9.819-25.696,0.015-35.518c-0.149-0.134-0.298-0.18-0.419-0.313l0.029-0.03
		c0,0-126.73-126.716-161.888-161.903C303.465,255.427,325.923,228.791,346.749,225.284z M333.284,149.587
		c0.599-6.724,1.949-14.46,4.183-22.646c1.185-4.07,2.577-8.262,4.273-12.497c1.874-4.302,3.839-8.306,6.718-12.496
		c5.5-8.042,12.202-14.296,18.875-19.542c6.597-5.316,13.298-9.446,19.25-12.579c5.907-3.194,11.197-5.263,14.977-6.447
		c3.838-1.259,6.072-1.425,6.072-1.425s-1.846,1.396-4.604,3.973c-2.787,2.594-6.761,6.313-11.543,10.765
		c-9.175,8.951-22.248,20.57-31.515,33.208c-2.234,2.886-4.227,6.694-5.966,10.18c-1.89,3.561-3.569,7.241-5.098,10.884
		c-3.18,7.242-5.803,14.257-8.066,20.308c-2.203,6.064-3.928,11.191-4.946,14.835c-1.11,3.65-0.961,5.817-0.78,5.817
		c-0.089,0.135-1.454-1.964-1.858-5.99C332.76,161.955,332.656,156.296,333.284,149.587z"/>
</g>
</svg>
