<?xml version="1.0" encoding="utf-8"?>
<!-- Generator: Adobe Illustrator 16.0.0, SVG Export Plug-In . SVG Version: 6.00 Build 0)  -->
<!DOCTYPE svg PUBLIC "-//W3C//DTD SVG 1.1//EN" "http://www.w3.org/Graphics/SVG/1.1/DTD/svg11.dtd">
<svg version="1.1" id="Capa_1" xmlns="http://www.w3.org/2000/svg" xmlns:xlink="http://www.w3.org/1999/xlink" x="0px" y="0px"
	 width="500px" height="500px" viewBox="0 30 500 500" enable-background="new 0 30 500 500" xml:space="preserve">
<g>
	<g>
		<path d="M458.262,103.135H354.336V86.192c0-30.296-24.646-54.941-54.94-54.941h-98.791c-30.294,0-54.941,24.645-54.941,54.941
			v16.943H41.738c-7.702,0-13.864,6.162-13.864,13.864c0,7.702,6.162,13.864,13.864,13.864h25.057v325.743
			c0,40.872,33.273,74.145,74.145,74.145h218.121c40.872,0,74.145-33.272,74.145-74.145V130.863h25.057
			c7.702,0,13.864-6.162,13.864-13.864C472.126,109.297,465.964,103.135,458.262,103.135z M173.391,86.192
			c0-14.992,12.22-27.213,27.213-27.213h98.791c14.993,0,27.214,12.221,27.214,27.213v16.943H173.391V86.192z M405.478,456.606
			c0,25.571-20.848,46.417-46.417,46.417H140.939c-25.571,0-46.417-20.846-46.417-46.417V130.863H405.58v325.743H405.478z"/>
		<path d="M250,453.321c7.704,0,13.864-6.162,13.864-13.864V194.428c0-7.702-6.16-13.864-13.864-13.864
			c-7.702,0-13.862,6.162-13.862,13.864v244.925C236.137,447.056,242.298,453.321,250,453.321z"/>
		<path d="M159.527,438.02c7.702,0,13.864-6.162,13.864-13.864V209.63c0-7.702-6.162-13.864-13.864-13.864
			c-7.702,0-13.864,6.162-13.864,13.864v214.526C145.663,431.858,151.928,438.02,159.527,438.02z"/>
		<path d="M340.472,438.02c7.703,0,13.864-6.162,13.864-13.864V209.63c0-7.702-6.161-13.864-13.864-13.864
			c-7.701,0-13.862,6.162-13.862,13.864v214.526C326.609,431.858,332.771,438.02,340.472,438.02z"/>
	</g>
</g>
</svg>
