<?xml version="1.0" encoding="utf-8"?>
<!-- Generator: Adobe Illustrator 16.0.0, SVG Export Plug-In . SVG Version: 6.00 Build 0)  -->
<!DOCTYPE svg PUBLIC "-//W3C//DTD SVG 1.1//EN" "http://www.w3.org/Graphics/SVG/1.1/DTD/svg11.dtd">
<svg version="1.1" id="Layer_1" xmlns="http://www.w3.org/2000/svg" xmlns:xlink="http://www.w3.org/1999/xlink" x="0px" y="0px"
	 width="223.5px" height="300px" viewBox="0 0 223.5 300" enable-background="new 0 0 223.5 300" xml:space="preserve">
<path d="M133.789,58.817c15.523,2.105,27.564,16.302,27.564,33.444v28.559h-8.509V92.261c0-12.161-8.544-22.141-19.039-24.495
	L133.789,58.817z"/>
<polygon points="102.317,67.056 19.314,67.056 19.314,122.125 10.806,122.125 10.806,58.548 102.317,58.548 "/>
<path d="M125.791,42.406V29.465h8.902h67.344c6.621,0,9.819-3.198,9.819-7.142s-3.198-7.14-7.142-7.14h-86.088
	c-3.943,0-7.14,3.196-7.14,7.14v121.832c0,3.942,3.196,7.139,7.14,7.139c3.942,0,7.141-3.196,7.141-7.139L125.791,42.406z"/>
<path d="M161.355,113.73v98.151v81.468H95.463H38.742c-15.084,0-27.311-13.19-27.311-29.46l-0.626-150.273l0.626,0.112
	L161.355,113.73z"/>
</svg>
