<?xml version="1.0" encoding="utf-8"?>
<!-- Generator: Adobe Illustrator 16.0.0, SVG Export Plug-In . SVG Version: 6.00 Build 0)  -->
<!DOCTYPE svg PUBLIC "-//W3C//DTD SVG 1.1//EN" "http://www.w3.org/Graphics/SVG/1.1/DTD/svg11.dtd">
<svg version="1.1" id="Layer_1" xmlns="http://www.w3.org/2000/svg" xmlns:xlink="http://www.w3.org/1999/xlink" x="0px" y="0px"
	 width="213px" height="300px" viewBox="17.5 0 213 300" enable-background="new 17.5 0 213 300" xml:space="preserve">
<path fill="none" stroke="#231F20" stroke-width="4" stroke-miterlimit="10" d="M121.512,197.43"/>
<path fill="none" stroke="#231F20" stroke-width="4" stroke-miterlimit="10" d="M33.577,90.257"/>
<path d="M157.165,191.217l-16.875,17.926l-19.084-19.816l-4.691-4.397c-3.511,1.412-7.176,2.518-10.966,3.282l1.588,1.602
	l-17.708,18.896l-7.248-20.157c-4.044-0.697-7.959-1.771-11.702-3.198l11.332,31.484l-0.058,0.062l0.121,0.114l20.341,56.523
	l1.521,5.247c2.688,8.606,10.53,15.347,19.565,15.347h0.448c9.035,0,16.877-6.74,19.563-15.347l32.08-91.119
	C169.667,189.84,163.546,190.802,157.165,191.217z M93.04,219.209v-0.005l21.009-22.334l19.388,19.509l-18.677,19.87l-19.991-18.792
	L93.04,219.209z M103.603,248.119l-4.77-13.264l9.139,8.62L103.603,248.119z M134.202,273.919l-0.348,1.831
	c-1.342,4.404-5.497,8.449-10.106,8.449h-0.45c-4.608,0-8.767-4.045-10.106-8.449l-5.817-16.662l7.821-8.55l20.488,19.205
	L134.202,273.919z M139.308,259.39l-17.305-16.327l18.473-19.623l8.514,8.586L139.308,259.39z M147.285,216.201l11.701-12.433
	l-6.318,17.857L147.285,216.201z"/>
<path d="M85.167,126.566c-16.182-10.523-27.661-27.638-30.679-47.534c-12.52,10.598-20.476,26.418-20.476,44.108
	c0,31.906,25.864,57.769,57.77,57.769c6.371,0,12.494-1.047,18.224-2.951C95.22,165.613,85.662,147.217,85.167,126.566z"/>
<circle cx="152.862" cy="125.022" r="57.769"/>
<path d="M152.576,55.775c9.791,0,19.099,2.047,27.536,5.719c-3.673-28.368-27.901-50.285-57.27-50.285
	c-31.906,0-57.77,25.864-57.77,57.769c0,17.252,7.57,32.727,19.561,43.312C90.556,80.14,118.713,55.775,152.576,55.775z"/>
</svg>
