<?xml version="1.0" encoding="utf-8"?>
<!-- Generator: Adobe Illustrator 16.0.0, SVG Export Plug-In . SVG Version: 6.00 Build 0)  -->
<!DOCTYPE svg PUBLIC "-//W3C//DTD SVG 1.1//EN" "http://www.w3.org/Graphics/SVG/1.1/DTD/svg11.dtd">
<svg version="1.1" id="Layer_1" xmlns="http://www.w3.org/2000/svg" xmlns:xlink="http://www.w3.org/1999/xlink" x="0px" y="0px"
	 width="300px" height="300px" viewBox="0 0 300 300" enable-background="new 0 0 300 300" xml:space="preserve">
<g>
	<path d="M194.111,120.923c-15.97-29.163-46.952-48.941-82.544-48.941c-51.943,0-94.05,43.357-94.05,95.303
		c0,4.582,0.343,9.327,0.978,14.737h45.779v10.82H20.704c10.717,39.675,47.329,68.493,90.862,68.493
		c51.938,0,94.051-42.731,94.051-94.678C205.617,150.312,201.446,134.315,194.111,120.923z M73.76,145.097
		c-7.197,0-13.034-5.838-13.034-13.037c0-7.195,5.834-13.035,13.034-13.035c7.2,0,13.034,5.839,13.034,13.035
		C86.793,139.259,80.958,145.097,73.76,145.097z"/>
</g>
<path stroke="#000000" stroke-width="4" stroke-miterlimit="10" d="M282.034,134.933c0-21.965-17.855-39.773-39.817-39.773
	c-16.343,0-30.385,9.87-36.501,23.962c0.351,0.609,0.694,1.215,1.03,1.834c7.334,13.394,11.5,29.38,11.5,45.727
	c0,10.292-1.581,20.211-4.637,29.517l68.874,33.782v-81.872L282.034,134.933z"/>
<path d="M200.313,219.053c-1.828,3.199-3.817,6.292-5.994,9.245c2.912,3.099,4.624,7.237,4.624,11.574
	c0,9.308-7.572,16.881-16.882,16.881c-4.711,0-9.088-1.992-12.219-5.296c-3.068,2.013-6.259,3.858-9.56,5.507
	c5.175,6.587,13.148,10.609,21.778,10.609c15.277,0,27.702-12.43,27.702-27.701C209.763,231.868,206.231,224.266,200.313,219.053z"
	/>
<path d="M65.953,73c-0.654-1.719-1.018-3.558-1.018-5.457c0-7.834,5.78-14.207,12.886-14.207c1.826,0,3.594,0.413,5.25,1.232
	l8.001,3.794l-0.203-8.924l-0.012-0.265c-0.03-0.411-0.046-0.826-0.046-1.246c0-7.834,5.779-14.209,12.884-14.209
	c4.229,0,8.191,2.294,10.574,6.094l4.82,7.854l4.562-7.766c2.343-3.987,6.082-6.182,10.523-6.182
	c7.104,0,12.886,6.375,12.886,14.209c0,0.652-0.044,2.302-0.044,2.312l-0.241,9.3l8.203-4.39c2.345-1.253,4.053-1.812,5.546-1.812
	c7.103,0,12.887,6.373,12.887,14.207c0,5.311-2.742,10.176-7.012,12.611c3.005,2.232,5.866,4.645,8.582,7.213
	c5.73-4.689,9.25-12.023,9.25-19.825c0-13.799-10.636-25.027-23.707-25.027c-1.092,0-2.144,0.106-3.142,0.286
	c-2.244-11.353-11.798-19.905-23.206-19.905c-5.833,0-11.135,2.067-15.265,5.827c-4.209-3.724-9.566-5.827-15.218-5.827
	c-11.364,0-20.889,8.49-23.18,19.777c-0.889-0.106-1.788-0.158-2.694-0.158c-13.073,0-23.707,11.228-23.707,25.027
	c0,3.949,0.886,7.795,2.555,11.276C59.645,76.71,62.738,74.757,65.953,73z"/>
</svg>
