<?xml version="1.0" encoding="utf-8"?>
<!-- Generator: Adobe Illustrator 16.0.0, SVG Export Plug-In . SVG Version: 6.00 Build 0)  -->
<!DOCTYPE svg PUBLIC "-//W3C//DTD SVG 1.1//EN" "http://www.w3.org/Graphics/SVG/1.1/DTD/svg11.dtd">
<svg version="1.1" id="Layer_1" xmlns="http://www.w3.org/2000/svg" xmlns:xlink="http://www.w3.org/1999/xlink" x="0px" y="0px"
	 width="218px" height="300px" viewBox="31.5 0 218 300" enable-background="new 31.5 0 218 300" xml:space="preserve">
<g>
	<path stroke="#000000" stroke-miterlimit="10" d="M217.934,98.309l-76.316,47.107c6.356,7.735,11.777,16.267,16.122,25.405
		l78.61-23.946C233.687,129.177,227.268,112.711,217.934,98.309z"/>
	<path stroke="#000000" stroke-miterlimit="10" d="M169.642,223.712c0,2.19-0.069,4.36-0.183,6.521l46.074,5.557
		c5.96-8.544,10.882-17.863,14.559-27.783l-61.102,3.138C169.411,215.276,169.642,219.469,169.642,223.712z"/>
	<path stroke="#000000" stroke-miterlimit="10" d="M155.557,281.023l-0.482,0.912c21.643-7.649,40.585-21.204,54.86-38.711
		l-41.15-4.961C166.988,253.541,162.41,267.973,155.557,281.023z"/>
	<path stroke="#000000" stroke-miterlimit="10" d="M237.283,155.005l-76.316,23.247c3.144,7.924,5.463,16.259,6.919,24.888
		l64.917-3.333c3.197-10.943,4.925-22.506,4.925-34.461C237.728,161.857,237.568,158.415,237.283,155.005z"/>
</g>
<path d="M131.522,53.66l-8.05-0.101c0.004-0.328,0.158-33.007-18.079-42.122c-13.229-6.614-34.299,0.698-60.925,21.151l-4.901-6.384
	C69.24,3.415,92.607-3.974,109.016,4.248C131.749,15.635,131.542,52.114,131.522,53.66z"/>
<path d="M102.161,78.815c-0.022-0.264-2.962-28.729-17.838-35.309c-9.046-4-21.427-0.044-36.796,11.768l-4.904-6.382
	c17.897-13.753,33.032-18.037,44.981-12.737c19.24,8.535,21.875,38.543,21.977,39.815L102.161,78.815z"/>
<path d="M171.116,55.744c0,0-15.243-9.575-27.99-8.574c-23.333,1.833-42.377,18.974-42.377,42.378
	c0,12.06,4.815,24.144,13.124,30.66l2.949,2.256c7.046,4.922,13.552,10.563,19.417,16.813l77.094-47.587
	C202.197,76.745,187.776,64.396,171.116,55.744z M135.36,88.511c-5.354,0-9.696-4.341-9.696-9.696c0-5.356,4.342-9.697,9.696-9.697
	c5.355,0,9.697,4.341,9.697,9.697C145.057,84.17,140.716,88.511,135.36,88.511z"/>
<g>
	<g>
		<path d="M163.245,276.54c-0.24,1.342-0.758,2.712-1.583,4.012c-1.878,2.959-4.83,4.794-7.705,4.794
			c-1.232,0-2.418-0.34-3.428-0.979l-3.652-2.314l-20.091,9.203c-0.188-0.195-0.427-0.502-0.634-0.956
			c-0.207-0.45-0.285-0.833-0.31-1.103l18.754-8.588l-8.11-5.141l-14.788,6.772c-2.061,0.945-3.452,2.926-3.817,5.437
			c-0.278,1.906,0.06,4.029,0.952,5.974c1.627,3.556,4.723,5.854,7.888,5.854c0.917,0,1.797-0.19,2.625-0.567l30.135-13.808
			c1.557-0.707,2.768-2.038,3.404-3.749C163.439,279.915,163.549,278.238,163.245,276.54z"/>
	</g>
	<path d="M153.958,285.346c-1.232,0-2.418-0.34-3.427-0.979l-28.006-17.745c-3.486-2.214-4.057-7.351-1.303-11.698
		c1.875-2.958,4.828-4.792,7.707-4.792c1.23,0,2.414,0.337,3.421,0.978l28.007,17.748c3.487,2.207,4.059,7.346,1.305,11.695
		C159.784,283.511,156.834,285.346,153.958,285.346z M127.567,260.287l26.541,16.816c0.214-0.167,0.491-0.442,0.756-0.861
		c0.265-0.42,0.395-0.787,0.455-1.052l-26.539-16.816c-0.214,0.168-0.493,0.44-0.759,0.862
		C127.755,259.654,127.627,260.022,127.567,260.287z"/>
</g>
</svg>
