<?xml version="1.0" encoding="utf-8"?>
<!-- Generator: Adobe Illustrator 16.0.0, SVG Export Plug-In . SVG Version: 6.00 Build 0)  -->
<!DOCTYPE svg PUBLIC "-//W3C//DTD SVG 1.1//EN" "http://www.w3.org/Graphics/SVG/1.1/DTD/svg11.dtd">
<svg version="1.1" id="Layer_1" xmlns="http://www.w3.org/2000/svg" xmlns:xlink="http://www.w3.org/1999/xlink" x="0px" y="0px"
	 width="300px" height="300px" viewBox="0 0 300 300" enable-background="new 0 0 300 300" xml:space="preserve">
<path d="M86.587,265.465c-0.013,3.686-1.335,7.139-3.723,9.722c-2.334,2.523-5.458,3.906-8.668,3.892
	c-3.059-0.007-5.991-1.269-8.255-3.548c-2.58-2.601-4.05-6.299-4.035-10.153l0.59-175.932l-4.874-0.017l-0.59,175.93
	c-0.021,5.138,1.965,10.08,5.45,13.59c3.183,3.204,7.336,4.974,11.697,4.974c0.021,0,0.043,0,0.064,0
	c4.611,0,8.94-1.922,12.197-5.442c3.221-3.48,5.002-8.096,5.02-13.005l0.595-175.93l-4.873-0.015L86.587,265.465z"/>
<path d="M177.397,265.465c-0.013,3.686-1.335,7.124-3.723,9.706c-2.323,2.512-5.384,3.877-8.623,3.877c-0.016,0-0.03,0-0.046,0
	c-3.059,0-5.99-1.252-8.254-3.532c-2.58-2.601-4.051-6.291-4.035-10.146l0.589-175.927l-4.873-0.015l-0.589,175.933
	c-0.022,5.135,1.966,10.079,5.45,13.589c3.183,3.204,7.336,4.974,11.697,4.974c0.021,0,0.041,0,0.063,0
	c4.612,0,8.941-1.922,12.198-5.442c3.221-3.479,5.003-8.095,5.02-13.004l0.595-175.931l-4.873-0.014L177.397,265.465z"/>
<path d="M268.72,152.775l-0.362,112.827c-0.013,3.686-1.334,7.055-3.723,9.636c-2.323,2.512-5.385,3.808-8.623,3.808
	c-0.017,0-0.031,0-0.045,0c-3.06,0-5.991-1.187-8.254-3.465c-2.581-2.6-4.051-6.257-4.034-10.111l0.353-112.378l-4.874,0.076
	l-0.353,112.32c-0.022,5.138,1.965,10.014,5.45,13.523c3.182,3.205,7.337,4.906,11.696,4.906c0.022,0,0.043,0,0.065,0
	c4.611,0,8.94-1.852,12.197-5.373c3.22-3.479,5.003-8.06,5.02-12.971l0.362-112.888L268.72,152.775z"/>
<path d="M104.944,61.587l0.18,19.95l-29.703,0.273l-21.041,0.19c-5.593,0.054-10.162-3.138-10.199-7.12l-0.039-36.244l-0.18-19.952
	l29.707-0.269l20.746-0.189c5.597-0.052,10.163,3.137,10.198,7.124L104.944,61.587z"/>
<path d="M180.31,57.713c0,2.357-1.923,4.27-4.298,4.27s-4.3-1.913-4.3-4.27v-1.577V20.259l-13.41,0.129l0.043,37.38
	c0,2.374-1.924,4.298-4.299,4.298c-2.376,0-4.3-1.925-4.3-4.298l-0.384-37.38h-13.96l0.176,19.541l0.04,35.5
	c0.036,3.901,4.51,7.026,9.988,6.974l20.609-0.187l29.093-0.267l-0.179-19.54l-0.33-34.387c0-4.216-3.42-7.635-7.637-7.635h-1.693
	l-5.201,0.218v32.135L180.31,57.713z"/>
<path d="M275.995,64.013l0.2,82.598l-37.467,0.512c-6.182,0.059-11.233-3.468-11.272-7.87l-0.044-100.612l-0.199-22.055l9.554-0.299
	l27.591-0.209c6.188-0.058,11.233,3.468,11.273,7.874L275.995,64.013z"/>
</svg>
