<?xml version="1.0" encoding="utf-8"?>
<!-- Generator: Adobe Illustrator 16.0.0, SVG Export Plug-In . SVG Version: 6.00 Build 0)  -->
<!DOCTYPE svg PUBLIC "-//W3C//DTD SVG 1.1//EN" "http://www.w3.org/Graphics/SVG/1.1/DTD/svg11.dtd">
<svg version="1.1" id="Layer_1" xmlns="http://www.w3.org/2000/svg" xmlns:xlink="http://www.w3.org/1999/xlink" x="0px" y="0px"
	 width="228.5px" height="300px" viewBox="0 0 228.5 300" enable-background="new 0 0 228.5 300" xml:space="preserve">
<path d="M165.879,122.825h-8.406V94.609c0-13.73-10.22-24.902-22.781-24.902H99.65v-8.406h35.042
	c17.197,0,31.188,14.943,31.188,33.308V122.825z"/>
<polygon points="21.94,124.113 13.534,124.113 13.534,61.301 70.871,61.301 70.871,69.707 21.94,69.707 "/>
<path stroke="#000000" stroke-width="4" stroke-miterlimit="10" d="M164.076,115.82v96.973v80.488H98.975H42.936
	c-14.901,0-26.982-13.031-26.982-29.104l-0.618-148.469l0.618,0.111L164.076,115.82z"/>
<path d="M165.646,140.297l-1.726-8.227c29.713-6.231,50.392-33.798,48.095-64.124c-1.225-16.206-8.687-30.963-21.011-41.554
	c-12.325-10.594-28.05-15.754-44.241-14.525c-31.348,2.369-56.06,28.817-56.257,60.209l-8.406-0.053
	c0.226-35.734,28.351-65.839,64.027-68.537c18.457-1.394,36.328,4.477,50.356,16.533c14.025,12.055,22.521,28.851,23.912,47.295
	C223.01,101.827,199.471,133.204,165.646,140.297z"/>
<path stroke="#000000" stroke-width="4" stroke-miterlimit="10" d="M167.092,64.938c-1.127,1.177-3.518,0.716-5.336-1.026
	c-1.816-1.744-2.379-4.112-1.252-5.285l20.297-21.184c1.127-1.176,3.52-0.716,5.336,1.028c1.819,1.743,2.381,4.112,1.256,5.286
	L167.092,64.938z"/>
<path stroke="#000000" stroke-width="4" stroke-miterlimit="10" d="M171.781,81.366c-1.627-0.004-2.943-2.054-2.934-4.572
	c0.01-2.52,1.34-4.558,2.965-4.551l29.34,0.107c1.627,0.005,2.943,2.054,2.934,4.574c-0.009,2.52-1.339,4.557-2.965,4.552
	L171.781,81.366z"/>
<path stroke="#000000" stroke-width="4" stroke-miterlimit="10" d="M151.438,58.931c0.037,1.626-1.981,2.992-4.5,3.047
	c-2.519,0.052-4.588-1.226-4.623-2.854l-0.623-29.333c-0.037-1.626,1.979-2.994,4.5-3.045c2.518-0.054,4.588,1.225,4.625,2.851
	L151.438,58.931z"/>
<path stroke="#000000" stroke-width="4" stroke-miterlimit="10" d="M123.876,67.141l-17.238-15.456
	c-1.209-1.084-0.831-3.489,0.854-5.366c1.681-1.874,4.029-2.514,5.242-1.428l21.842,19.59c0.594,0.532,0.804,1.379,0.668,2.328"/>
<path stroke="#000000" stroke-width="4" stroke-miterlimit="10" d="M161.762,90.548c0.274-0.492,2.434-3.729,3.59-2.582
	l20.815,20.674c1.159,1.146,0.653,3.529-1.12,5.315c-1.777,1.787-4.152,2.306-5.306,1.158l-17.087-16.967"/>
<line fill="none" stroke="#FFFFFF" stroke-width="5" stroke-miterlimit="10" x1="74.025" y1="73.996" x2="96.79" y2="73.996"/>
</svg>
