<?xml version="1.0" encoding="utf-8"?>
<!-- Generator: Adobe Illustrator 16.0.0, SVG Export Plug-In . SVG Version: 6.00 Build 0)  -->
<!DOCTYPE svg PUBLIC "-//W3C//DTD SVG 1.1//EN" "http://www.w3.org/Graphics/SVG/1.1/DTD/svg11.dtd">
<svg version="1.1" id="Layer_1" xmlns="http://www.w3.org/2000/svg" xmlns:xlink="http://www.w3.org/1999/xlink" x="0px" y="0px"
	 width="199px" height="300px" viewBox="0 0 199 300" enable-background="new 0 0 199 300" xml:space="preserve">
<path d="M133.025,55.347l-43.439,1.292H15.825l43.257,208.513l1.756,5.385c5.307,14.546,19.04,23.419,35.424,23.419
	c17.737,0,32.084-10.658,36.234-27.11l1.111-3.451l36.998-167.73l0.354-3.292C170.96,71.421,153.973,55.347,133.025,55.347z
	 M115.119,142.348H67.348v-8.431h47.771V142.348z M123.549,119.867H60.322v-8.431h63.227V119.867z M130.574,97.386H54.701v-8.431
	h75.873V97.386z"/>
<g>
	<g>
		<path d="M92.208,54.361L80.032,33.795L80.098,16.2c0.02-7.253,5.572-13.156,12.375-13.156c6.861,0.03,12.386,5.971,12.359,13.243
			l-0.062,16.285L92.208,54.361z M86.038,32.163l6.102,10.305l6.637-11.511l0.056-14.691c0.015-3.966-2.831-7.205-6.343-7.221
			c-3.52,0-6.38,3.219-6.391,7.175L86.038,32.163z"/>
		<rect x="95.784" y="58.08" transform="matrix(0.5094 0.8606 -0.8606 0.5094 101.4654 -55.805)" width="7.776" height="6"/>
	</g>
	<path d="M100.592,68.523L71.909,20.07c-2.021-3.412-6.127-4.735-9.15-2.948c-1.419,0.84-2.403,2.257-2.769,3.986
		c-0.385,1.824-0.045,3.76,0.958,5.453L83.884,65.3l-5.163,3.057L55.787,29.62c-1.772-2.989-2.364-6.453-1.667-9.752
		c0.717-3.393,2.7-6.202,5.583-7.909c5.871-3.47,13.661-1.202,17.368,5.054l28.685,48.454L100.592,68.523z"/>
	<g>
		<path d="M103.178,72.891l-14.48-24.46l18.216-31.58c2.424-4.207,6.803-6.821,11.429-6.821c2.071,0,4.104,0.542,5.88,1.565
			c5.902,3.41,7.751,11.309,4.122,17.61L103.178,72.891z M95.646,48.392l7.461,12.602l20.037-34.783
			c1.979-3.438,1.117-7.663-1.923-9.419c-0.875-0.505-1.845-0.762-2.88-0.762c-2.486,0-4.874,1.463-6.23,3.818L95.646,48.392z"/>
	</g>
</g>
</svg>
