<?xml version="1.0" encoding="utf-8"?>
<!-- Generator: Adobe Illustrator 16.0.0, SVG Export Plug-In . SVG Version: 6.00 Build 0)  -->
<!DOCTYPE svg PUBLIC "-//W3C//DTD SVG 1.1//EN" "http://www.w3.org/Graphics/SVG/1.1/DTD/svg11.dtd">
<svg version="1.1" id="Layer_1" xmlns="http://www.w3.org/2000/svg" xmlns:xlink="http://www.w3.org/1999/xlink" x="0px" y="0px"
	 width="300px" height="300px" viewBox="0 0 300 300" enable-background="new 0 0 300 300" xml:space="preserve">
<path d="M33.023,78.067h98.945h69.111c18.641,0,33.749,15.595,33.749,34.836l-0.662,59.177
	c-2.603,53.083-46.687,95.328-100.684,95.328c-55.674,0-100.802-44.904-100.802-100.296L33.023,78.067z"/>
<path d="M254.064,97.176h-13.707c1.259,3.769,1.976,7.798,1.976,12.01l-0.002,0.156h11.733c6.033,0,9.784,2.027,10.587,3.03v61.809
	h-23.193c-0.295,4.126-0.812,8.187-1.566,12.167h36.926V112.02C276.817,103.56,267.035,97.176,254.064,97.176z"/>
<path stroke="#000000" stroke-width="4" stroke-miterlimit="10" d="M138.853,46.462c-0.01,1.989-2.515,3.597-5.594,3.587
	c-3.083-0.013-5.577-1.637-5.563-3.627l0.128-35.878c0.008-1.992,2.512-3.6,5.596-3.589c3.081,0.013,5.57,1.639,5.564,3.628
	L138.853,46.462z"/>
<path stroke="#000000" stroke-width="4" stroke-miterlimit="10" d="M161.528,55.548c-0.922,1.767-3.891,2.04-6.619,0.614
	c-2.732-1.428-4.194-4.017-3.27-5.783l16.625-31.796c0.924-1.764,3.886-2.041,6.618-0.61c2.729,1.427,4.194,4.016,3.271,5.781
	L161.528,55.548z"/>
<path stroke="#000000" stroke-width="4" stroke-miterlimit="10" d="M115.382,50.608c0.89,1.782-0.622,4.347-3.372,5.726
	c-2.755,1.381-5.713,1.054-6.604-0.726L89.337,23.527c-0.891-1.78,0.62-4.346,3.376-5.723c2.752-1.38,5.708-1.055,6.604,0.726
	L115.382,50.608z"/>
<path d="M228.103,260.604h-40.888c-15.66,8.977-33.815,14.128-53.187,14.128c-19.363,0-37.5-5.159-53.154-14.128H39.405
	c-8.96,0-16.221,7.262-16.221,16.221c0,8.958,7.261,16.222,16.221,16.222h188.698c8.958,0,16.222-7.264,16.222-16.222
	C244.324,267.866,237.061,260.604,228.103,260.604z"/>
</svg>
