<?xml version="1.0" encoding="utf-8"?>
<!-- Generator: Adobe Illustrator 16.0.0, SVG Export Plug-In . SVG Version: 6.00 Build 0)  -->
<!DOCTYPE svg PUBLIC "-//W3C//DTD SVG 1.1//EN" "http://www.w3.org/Graphics/SVG/1.1/DTD/svg11.dtd">
<svg version="1.1" id="Layer_1" xmlns="http://www.w3.org/2000/svg" xmlns:xlink="http://www.w3.org/1999/xlink" x="0px" y="0px"
	 width="500px" height="500px" viewBox="0 30 500 500" enable-background="new 0 30 500 500" xml:space="preserve">
<g>
	<g>
		<path d="M375.675,206.491c-0.681,0-340.433,0-340.433,0l71.581-80.231c4.642-5.203,4.187-13.184-1.017-17.825
			c-5.2-4.641-13.183-4.188-17.825,1.017L7.364,199.809c-9.82,11.009-9.819,27.609,0,38.615l80.617,90.358
			c2.495,2.796,5.951,4.219,9.424,4.219c2.991,0,5.993-1.057,8.401-3.204c5.204-4.641,5.658-12.621,1.017-17.824l-71.581-80.232
			c0,0,339.751,0,340.434,0c54.529,0,98.889,44.363,98.889,98.889s-44.361,98.889-98.889,98.889h-60.114
			c-6.973,0-12.625,5.653-12.625,12.625c0,6.973,5.652,12.626,12.625,12.626h60.114c68.451,0,124.139-55.688,124.139-124.14
			C499.813,262.18,444.126,206.491,375.675,206.491z"/>
	</g>
</g>
</svg>
