<?xml version="1.0" encoding="utf-8"?>
<!-- Generator: Adobe Illustrator 16.0.0, SVG Export Plug-In . SVG Version: 6.00 Build 0)  -->
<!DOCTYPE svg PUBLIC "-//W3C//DTD SVG 1.1//EN" "http://www.w3.org/Graphics/SVG/1.1/DTD/svg11.dtd">
<svg version="1.1" id="Layer_1" xmlns="http://www.w3.org/2000/svg" xmlns:xlink="http://www.w3.org/1999/xlink" x="0px" y="0px"
	 width="500px" height="500px" viewBox="0 30 500 500" enable-background="new 0 30 500 500" xml:space="preserve">
<g>
	<g>
		<path d="M493.39,126.392h-21.715l12.309-24.185c1.11-2.181,1.006-4.783-0.271-6.868c-1.28-2.085-3.55-3.357-5.997-3.357H328.537
			c-2.446,0-4.718,1.272-5.997,3.357c-1.28,2.085-1.382,4.688-0.272,6.868l12.31,24.185h-68.004h-99.729l12.31-24.185
			c1.11-2.181,1.007-4.783-0.272-6.868c-1.278-2.085-3.549-3.357-5.997-3.357H23.709c-2.446,0-4.718,1.272-5.997,3.357
			c-1.279,2.085-1.382,4.688-0.272,6.868l12.311,24.185H8.035c-3.884,0-7.035,3.15-7.035,7.035v73.851
			c0,3.886,3.151,7.034,7.035,7.034h15.401l15.388,250.143c0.228,3.713,3.304,6.604,7.021,6.604h38.689
			c3.884,0,7.035-3.148,7.035-7.034V214.312h42.048l26.031,26.031c1.373,1.373,3.174,2.06,4.975,2.06s3.6-0.687,4.975-2.06
			l26.034-26.031h100.285l49.479,49.48c1.372,1.373,3.174,2.06,4.975,2.06c1.8,0,3.6-0.687,4.975-2.06l49.479-49.48h5.046v249.713
			c0,3.883,3.149,7.034,7.036,7.034h38.678c3.717,0,6.791-2.892,7.02-6.604l15.387-250.143h15.401c3.884,0,7.036-3.148,7.036-7.037
			v-73.849C500.426,129.542,497.273,126.392,493.39,126.392z M466.243,106.051l-10.355,20.341H350.367l-10.355-20.341H466.243z
			 M161.414,106.051l-10.354,20.341H45.538l-10.353-20.341H161.414z M77.5,456.99H52.459L37.532,214.312H77.5V456.99z
			 M15.069,200.243v-59.782h44.699l59.781,59.782H15.069z M164.622,225.42l-84.959-84.959H249.59L164.622,225.42z M350.367,248.869
			l-34.557-34.558h69.113L350.367,248.869z M448.965,456.99h-25.029V214.312h39.956L448.965,456.99z M486.356,200.243H209.701
			l59.788-59.782h216.868V200.243z"/>
	</g>
</g>
</svg>
