<?xml version="1.0" encoding="utf-8"?>
<!-- Generator: Adobe Illustrator 15.0.0, SVG Export Plug-In  -->
<!DOCTYPE svg PUBLIC "-//W3C//DTD SVG 1.1//EN" "http://www.w3.org/Graphics/SVG/1.1/DTD/svg11.dtd" [
	<!ENTITY ns_flows "http://ns.adobe.com/Flows/1.0/">
]>
<svg version="1.1"
	 xmlns="http://www.w3.org/2000/svg" xmlns:xlink="http://www.w3.org/1999/xlink" xmlns:a="http://ns.adobe.com/AdobeSVGViewerExtensions/3.0/"
	 x="0px" y="0px" width="353px" height="536px" viewBox="-0.8 -0.3 353 536"
	 overflow="visible" enable-background="new -0.8 -0.3 353 536" xml:space="preserve">
<defs>
</defs>
<g>
	<defs>
		<rect id="SVGID_1_" y="0" width="351.6" height="535.5"/>
	</defs>
	<clipPath id="SVGID_2_">
		<use xlink:href="#SVGID_1_"  overflow="visible"/>
	</clipPath>
	<path clip-path="url(#SVGID_2_)" fill="#40B3A1" d="M215.9,452.3L100.7,247.5l118.8-126.7c0,0,19.5-18.6,8.3-62.4L331.9,233
		c0,0,45.6,63-2.1,107.5L215.9,452.3z"/>
	<path clip-path="url(#SVGID_2_)" fill="#FFFFFF" d="M260.8,227.7L139.5,22.5c0,0,32.6-53.8,78.5,26.6l109,187.4
		C327,236.5,300,187.6,260.8,227.7"/>
	<path clip-path="url(#SVGID_2_)" fill="#40B3A1" d="M145.3,22.7L261.9,220c9.8-8.6,19.7-13,29.7-13c5.3,0,10.2,1.3,14.6,3.2
		L213.8,51.5c-15.6-27.4-31.5-41.8-45.8-41.8C156.8,9.7,148.6,18.4,145.3,22.7 M322.8,238.9l-0.3-0.6c-1.4-2.3-13.5-21.6-31-21.6
		c-8.8,0-18,4.8-27.3,14.4l-4.4,4.5l-126-213.2l1.5-2.5C135.9,19.1,147.7,0,167.9,0c18.3,0,36.6,15.7,54.3,46.7l108.7,186.8
		c0.3,0.5,0.4,0.7,0.4,0.7L322.8,238.9z"/>
	<path clip-path="url(#SVGID_2_)" fill="#FFFFFF" d="M142.1,404c0,0-33.9,23.6-21.7,49.9l17.5,30c15.6,27.4,31.5,41.8,45.8,41.8
		c11.3,0,19.4-8.7,22.6-13L142.1,404z"/>
	<path clip-path="url(#SVGID_2_)" fill="#8DC63F" d="M183.7,525.8L183.7,525.8c-14.4,0-30.2-14.4-45.9-41.8l-17.5-30
		C108,427,142.1,404,142.1,404l64.3,108.8C203,517.1,194.9,525.8,183.7,525.8 M250.9,288L135.7,83.2L21.8,194.9
		c-47.8,44.5-2.1,107.5-2.1,107.5l56.2,94.3l53.6,92.1c17.7,31,35.9,46.7,54.3,46.7h0c20.2,0,32.1-19.1,32.6-19.9l1.5-2.5L149,396.6
		L250.9,288z"/>
	<path clip-path="url(#SVGID_2_)" fill="#FFFFFF" d="M307.1,309.2c-1.1-1-2.4-1.6-4-1.6c-1.4,0-2.7,0.6-3.7,1.7
		c-1.1,1.1-1.6,2.5-1.6,4c0,1.6,0.5,2.9,1.6,4c1,1.1,2.3,1.7,3.9,1.7c1.6,0,2.9-0.6,3.9-1.8c1.1-1.2,1.6-2.6,1.6-4.2
		C308.8,311.5,308.2,310.2,307.1,309.2 M288.5,277v-2.2c0-2.2-0.2-4.2-0.5-6c-0.3-1.8-1-3.3-2-4.4c-1-1.2-2.2-2-3.5-2.6
		c-1.3-0.6-2.7-0.8-4.2-0.8c-1.2,0-2.4,0.1-3.7,0.4c-1.3,0.3-2.6,0.8-3.8,1.5c-1.2,0.7-2.1,1.3-2.6,1.9l-1.6,1.6v-36h-7.3v88.3h7.3
		v-37.9c0-3.7,0.6-6.8,1.7-9.3c1.4-3,3.5-4.6,6.3-4.6c2.7,0,4.6,1.1,5.6,3.2c0.6,1.4,1,3.3,1,5.7v1.3v41.6h7.3V277z M247.2,309.2
		c-1.1-1-2.4-1.6-4-1.6c-1.4,0-2.7,0.6-3.8,1.7c-1.1,1.1-1.6,2.5-1.6,4c0,1.6,0.5,2.9,1.6,4c1,1.1,2.3,1.7,3.9,1.7
		c1.6,0,2.9-0.6,3.9-1.8c1.1-1.2,1.6-2.6,1.6-4.2C248.8,311.5,248.3,310.2,247.2,309.2 M219.8,306.8c-1.2,4.6-3.3,6.9-6.5,6.9
		c-3.6,0-5.9-3-7-8.9c-0.6-3.1-0.9-8.4-0.9-15.9c0-6.9,0.3-11.7,0.9-14.4c1.1-5.1,3.5-7.6,7.2-7.6c3.1,0,5.3,2.6,6.5,7.8
		c0.8,3.3,1.2,8.2,1.2,14.6C221.2,297.4,220.7,303.3,219.8,306.8 M226.5,270.7c-2.1-6.4-5.9-9.6-11.5-9.6c-1.5,0-2.9,0.2-4.1,0.7
		c-1.2,0.4-2.2,1.2-3.2,2.2l-1.6,1.7v-35.2h-7.3v88.3h7.3v-4.5l1.2,1.4c1.1,1.3,2.3,2.3,3.6,2.9c1.3,0.6,2.4,1,3.4,1.1
		c1,0.1,1.8,0.2,2.4,0.2c5,0,8.4-3.5,10.3-10.5c1.1-4.3,1.7-10.8,1.7-19.7C228.7,281.4,228,275.1,226.5,270.7 M186.1,309.2
		c-1.1-1-2.4-1.6-4-1.6c-1.4,0-2.7,0.6-3.8,1.7c-1.1,1.1-1.6,2.5-1.6,4c0,1.6,0.5,2.9,1.6,4c1,1.1,2.3,1.7,3.9,1.7
		c1.6,0,2.9-0.6,3.9-1.8c1.1-1.2,1.6-2.6,1.6-4.2C187.8,311.5,187.2,310.2,186.1,309.2 M166.8,279.4c0-4-0.2-7-0.5-9
		c-0.5-3-1.6-5.3-3.2-6.9c-0.7-0.7-1.8-1.3-3.2-1.7c-1.4-0.5-2.9-0.7-4.5-0.7c-1.9,0-3.6,0.3-5.1,1c-1.1,0.5-2.3,1.3-3.6,2.4
		c-0.8,0.8-1.5,1.5-2.2,2.2l-0.7,0.7l-0.6-1.1c-0.6-0.9-1.2-1.7-1.9-2.3c-0.8-0.8-1.8-1.5-2.7-1.9c-1.5-0.6-3.2-1-5.2-1
		c-0.8,0-1.6,0.1-2.3,0.2c-0.8,0.1-1.5,0.3-2.2,0.6c-0.7,0.3-1.7,0.9-2.9,1.8c-0.8,0.6-1.7,1.3-2.6,2.1l-0.8,0.7v-4.5h-7.3v56.6h7.3
		v-37.2c0-3.8,0.6-7,1.9-9.7c1.5-3.2,3.7-4.9,6.4-4.9c0.3,0,0.8,0.1,1.5,0.2c2.1,0.5,3.5,1.9,4.3,4.3c0.5,1.6,0.8,3.8,0.8,6.8v2.2
		v1.9v36.4h7.3v-36.4c0-4,0.5-7.3,1.6-10.1c1.4-3.4,3.5-5.2,6.4-5.2h0.7c0.2,0,0.4,0,0.7,0.1c2.3,0.4,3.9,1.6,4.6,3.7
		c0.5,1.4,0.8,3.6,0.8,6.6c0.1,0.5,0.1,1.1,0,1.9v39.3h7.3V279.4z M103.3,309.2c-1.1-1-2.4-1.6-4-1.6c-1.4,0-2.7,0.6-3.8,1.7
		c-1.1,1.1-1.6,2.5-1.6,4c0,1.6,0.5,2.9,1.6,4c1,1.1,2.3,1.7,3.9,1.7s2.9-0.6,3.9-1.8c1.1-1.2,1.6-2.6,1.6-4.2
		C105,311.5,104.4,310.2,103.3,309.2 M77.1,290.7v2.8c0,7.7-0.7,13-2,15.7c-1.4,2.8-3.3,4.1-5.8,4.1c-3.2,0-5.4-2-6.7-6
		c-1.3-4-1.9-9.8-1.9-17.6c0-5.8,0.5-10.7,1.7-14.6c1.4-5.1,3.7-7.7,6.8-7.7c2.6,0,4.6,1.3,5.9,3.8c1.4,2.5,2,7.4,2,14.6v3.5V290.7z
		 M83.8,262.1h-7.3v4.2l-1.6-1.7c-1.8-1.9-4.2-2.8-7.3-2.8c-4.5,0-7.9,1.9-10.3,5.7c-2.8,4.5-4.2,12.1-4.2,22.8
		c0,8.3,0.8,14.7,2.3,19.3c2.2,6.6,6.1,9.8,11.7,9.8c1.6,0,3.1-0.2,4.4-0.6c1.3-0.4,2.6-1.2,3.9-2.2l1.1-0.9v8.1
		c0,4.2-0.5,7.1-1.6,8.8c-1.1,1.7-2.9,2.6-5.5,2.6c-2.5,0-4.4-0.8-5.8-2.3c-1.4-1.5-2.1-3.9-2.1-7.3v-1.5h-7.1v1.2
		c0,2.8,0.2,5.1,0.6,6.9c0.4,1.8,1.2,3.5,2.6,5.2c1.3,1.7,3,2.9,5,3.7c2,0.7,4.2,1.1,6.6,1.1c2.3,0,4.4-0.4,6.4-1.1
		c2-0.7,3.5-1.7,4.4-3c1.4-1.7,2.4-3.8,2.9-6.2c0.5-2.4,0.8-5.1,0.8-8.1V262.1z"/>
	<path clip-path="url(#SVGID_2_)" fill="#FFFFFF" d="M306.8,340.3c0.3,0,0.5-0.2,0.5-0.5v-14.6c0-0.3-0.3-0.4-0.5-0.4
		c-0.3,0-0.5,0.1-0.5,0.4v12.5l-6.1-12.1c-0.2-0.4-0.5-0.9-0.9-0.9c-0.3,0-0.5,0.1-0.5,0.4v14.6c0,0.3,0.3,0.5,0.5,0.5
		c0.3,0,0.5-0.2,0.5-0.5v-12.5l6.2,12.2C306.2,339.9,306.5,340.3,306.8,340.3 M286.7,325.8h7c0.3,0,0.4-0.2,0.4-0.5
		c0-0.2-0.1-0.5-0.4-0.5h-7.6c-0.3,0-0.5,0.1-0.5,0.5v14.6c0,0.3,0.3,0.5,0.5,0.5h7.6c0.3,0,0.4-0.3,0.4-0.5c0-0.3-0.2-0.5-0.4-0.5
		h-7v-6.3h3.4c0.3,0,0.4-0.3,0.4-0.5c0-0.3-0.2-0.5-0.4-0.5h-3.4V325.8z M280.8,340.3c0.3,0,0.4-0.3,0.4-0.5c0-0.3-0.1-0.5-0.4-0.5
		h-6.3v-14.1c0-0.3-0.3-0.4-0.5-0.4c-0.3,0-0.5,0.1-0.5,0.4v14.6c0,0.3,0.3,0.5,0.5,0.5H280.8z M266.7,336c0,2.4-1.2,3.4-3.2,3.4
		c-2,0-3.2-1.1-3.2-3.4v-6.7c0-2.4,1.2-3.4,3.2-3.4c2,0,3.2,1.1,3.2,3.4V336z M263.5,340.5c2.4,0,4.3-1.2,4.3-4.5v-6.7
		c0-3.2-1.9-4.5-4.3-4.5c-2.4,0-4.3,1.2-4.3,4.5v6.7C259.3,339.3,261.1,340.5,263.5,340.5 M252.6,339.9c0,0.3,0.3,0.5,0.5,0.5
		c0.3,0,0.5-0.2,0.5-0.5v-14.6c0-0.3-0.3-0.4-0.5-0.4c-0.3,0-0.5,0.1-0.5,0.4v6.5h-6.5v-6.5c0-0.3-0.3-0.4-0.5-0.4
		c-0.3,0-0.5,0.1-0.5,0.4v14.6c0,0.3,0.3,0.5,0.5,0.5c0.3,0,0.5-0.2,0.5-0.5v-7.1h6.5V339.9z M229,325.8c2,0,3.4,0.9,3.4,3.1
		c0,2.3-1.4,3.2-3.4,3.2h-3v-6.3H229z M224.9,339.9c0,0.3,0.3,0.5,0.5,0.5c0.3,0,0.5-0.2,0.5-0.5v-6.8h3l3.3,6.5
		c0.2,0.3,0.4,0.7,0.7,0.7c0.4,0,0.6-0.3,0.6-0.5c0-0.1,0-0.2-0.1-0.3l-3.4-6.6c1.9-0.3,3.5-1.4,3.5-4.1c0-3.1-2.1-4.1-4.5-4.1h-3.6
		c-0.3,0-0.5,0.2-0.5,0.4V339.9z M212.9,325.8h7c0.3,0,0.4-0.2,0.4-0.5c0-0.2-0.1-0.5-0.4-0.5h-7.6c-0.3,0-0.5,0.1-0.5,0.5v14.6
		c0,0.3,0.3,0.5,0.5,0.5h7.6c0.3,0,0.4-0.3,0.4-0.5c0-0.3-0.2-0.5-0.4-0.5h-7v-6.3h3.4c0.3,0,0.4-0.3,0.4-0.5c0-0.3-0.2-0.5-0.4-0.5
		h-3.4V325.8z M205,339.9c0,0.3,0.3,0.5,0.5,0.5c0.3,0,0.5-0.2,0.5-0.5v-14.6c0-0.3-0.3-0.4-0.5-0.4c-0.3,0-0.5,0.1-0.5,0.4V339.9z
		 M192.3,325.8h2.8c1.9,0,3.3,0.4,3.3,2.6c0,2.3-1,3-3.2,3h-2.9V325.8z M192.3,339.3v-6.9h3.2c2,0,3.2,0.9,3.2,3.2v0.4
		c0,2.3-1.2,3.4-3.2,3.4H192.3z M191.2,339.9c0,0.2,0.2,0.5,0.5,0.5h3.9c2.4,0,4.2-1.1,4.2-4.3v-0.4c0-2.2-0.9-3.1-2.2-3.7
		c1.1-0.5,1.8-1.7,1.8-3.5c0-3-1.9-3.6-4.4-3.6h-3.3c-0.3,0-0.5,0.1-0.5,0.5V339.9z M179.7,340.3c0.3,0,0.4-0.3,0.4-0.5
		c0-0.3-0.1-0.5-0.4-0.5h-6.3v-14.1c0-0.3-0.3-0.4-0.5-0.4c-0.3,0-0.5,0.1-0.5,0.4v14.6c0,0.3,0.3,0.5,0.5,0.5H179.7z M159.9,335.7
		l2.8-9.1l2.7,9.1H159.9z M158.1,340.3c0.2,0,0.4-0.1,0.5-0.3l1-3.4h6.1l1,3.4c0.1,0.2,0.2,0.3,0.4,0.3c0.3,0,0.6-0.2,0.6-0.5
		c0-0.1,0-0.1,0-0.1l-4.5-14.7c-0.1-0.3-0.3-0.4-0.6-0.4c-0.3,0-0.5,0.1-0.6,0.4l-4.5,14.7c0,0,0,0.1,0,0.1
		C157.5,340.2,157.9,340.3,158.1,340.3 M151.9,327.2v12.6c0,0.3,0.3,0.5,0.5,0.5c0.3,0,0.5-0.2,0.5-0.5v-14.5c0-0.4-0.3-0.5-0.5-0.5
		c-0.4,0-0.7,0.5-0.9,0.9l-3.9,7.6l-3.9-7.6c-0.2-0.4-0.5-0.9-0.9-0.9c-0.3,0-0.5,0.1-0.5,0.5v14.5c0,0.3,0.3,0.5,0.5,0.5
		c0.3,0,0.5-0.2,0.5-0.5v-12.6l3.8,7.2c0.1,0.3,0.3,0.4,0.5,0.4c0.1,0,0.3-0.1,0.5-0.4L151.9,327.2z M128.8,339.9
		c0,0.3,0.3,0.5,0.5,0.5c0.3,0,0.5-0.2,0.5-0.5v-14.6c0-0.3-0.3-0.4-0.5-0.4c-0.3,0-0.5,0.1-0.5,0.4v6.5h-6.5v-6.5
		c0-0.3-0.3-0.4-0.5-0.4c-0.3,0-0.5,0.1-0.5,0.4v14.6c0,0.3,0.3,0.5,0.5,0.5c0.3,0,0.5-0.2,0.5-0.5v-7.1h6.5V339.9z M109.2,325.8h7
		c0.3,0,0.4-0.2,0.4-0.5c0-0.2-0.1-0.5-0.4-0.5h-7.6c-0.3,0-0.5,0.1-0.5,0.5v14.6c0,0.3,0.3,0.5,0.5,0.5h7.6c0.3,0,0.4-0.3,0.4-0.5
		c0-0.3-0.2-0.5-0.4-0.5h-7v-6.3h3.4c0.3,0,0.4-0.3,0.4-0.5c0-0.3-0.2-0.5-0.4-0.5h-3.4V325.8z M101.6,328.5c0,0.3,0.3,0.4,0.5,0.4
		c0.3,0,0.5-0.1,0.5-0.6c0-2-1.6-3.6-4.3-3.6c-2.4,0-4.2,1.2-4.2,4.5v6.7c0,3.3,1.8,4.5,4.3,4.5c2.4,0,4.3-1.2,4.3-4.5v-3.3
		c0-0.3-0.2-0.5-0.4-0.5h-3.8c-0.3,0-0.4,0.2-0.4,0.5c0,0.2,0.1,0.5,0.4,0.5h3.1v2.8c0,2.4-1.2,3.4-3.2,3.4c-2,0-3.2-1.1-3.2-3.4
		v-6.7c0-2.4,1.2-3.4,3.2-3.4C100.3,325.8,101.4,326.7,101.6,328.5"/>
</g>
</svg>
