<?xml version="1.0" encoding="utf-8"?>
<!-- Generator: Adobe Illustrator 16.0.0, SVG Export Plug-In . SVG Version: 6.00 Build 0)  -->
<!DOCTYPE svg PUBLIC "-//W3C//DTD SVG 1.1//EN" "http://www.w3.org/Graphics/SVG/1.1/DTD/svg11.dtd">
<svg version="1.1" id="Capa_1" xmlns="http://www.w3.org/2000/svg" xmlns:xlink="http://www.w3.org/1999/xlink" x="0px" y="0px"
	 width="500px" height="500px" viewBox="6 6 500 500" enable-background="new 6 6 500 500" xml:space="preserve">
<g>
	<g>
		<path fill="#FFFFFF" d="M162.212,143.395c1.968,3.668,3.322,4.705,5.05,7.196l4.443,5.366c0.814,1.798,2.151,3.198,2.736,5.166
			c1.444,3.728,3.021,7.665,3.513,12.006c1.43,8.472,1.322,17.357,0.962,25.113c-1.046,15.503-2.536,26.858-2.536,26.858
			s8.293-8.049,14.888-23.944c1.638-3.951,3.26-8.409,4.297-13.336c1.045-4.942,2.082-10.338,1.845-16.181
			c0-5.75-0.708-12.106-2.991-18.279c-0.93-3.144-2.836-6.058-4.313-9.117c-0.853-1.477-1.998-2.798-3.005-4.197l-1.59-2.068
			l-0.807-0.992l-0.186-0.261c0.078,0.123,0.248,0.276,0.547,0.646l-0.078-0.146l-0.285-0.361c-1.399-1.891-4.135-4.597-4.45-5.781
			c-0.631-1.399-1.592-2.529-2.222-4.674c-1.513-3.666-2.659-7.886-3.275-12.184c-1.292-8.594-1.114-17.486-0.768-25.267
			c1.022-15.574,2.374-26.934,2.374-26.934s-8.202,8.14-14.798,23.975c-3.306,7.902-6.218,17.772-6.366,29.355
			c0.146,5.734,0.239,12.016,2.628,18.218C158.591,136.562,160.367,140.044,162.212,143.395z"/>
		<path fill="#FFFFFF" d="M211.077,88.327c1.999,3.712,3.32,4.75,5.05,7.241l4.428,5.335c0.845,1.767,2.169,3.228,2.752,5.181
			c1.445,3.698,3.021,7.656,3.513,11.985c1.43,8.493,1.322,17.379,0.96,25.12c-1.007,15.542-2.521,26.858-2.521,26.858
			s8.279-8.041,14.858-23.929c1.652-3.981,3.274-8.386,4.311-13.398c1.062-4.912,2.083-10.277,1.86-16.135
			c-0.015-5.711-0.69-12.122-3.005-18.279c-0.93-3.127-2.836-6.071-4.313-9.108c-0.883-1.484-2.012-2.805-3.043-4.22l-1.569-2.06
			l-0.821-1l-0.155-0.261c0.062,0.124,0.231,0.293,0.455,0.499l-0.3-0.344c-1.369-1.907-4.106-4.582-4.421-5.781
			c-0.646-1.385-1.606-2.515-2.236-4.689c-1.499-3.667-2.659-7.886-3.245-12.168c-1.292-8.61-1.13-17.487-0.768-25.282
			C223.876,18.33,225.244,7,225.244,7s-8.217,8.125-14.813,23.944c-3.275,7.872-6.219,17.771-6.381,29.355
			c0.162,5.705,0.254,12.029,2.616,18.249C207.456,81.539,209.217,85.006,211.077,88.327z"/>
		<path fill="#FFFFFF" d="M271.473,138.26c1.968,3.69,3.29,4.741,5.012,7.209l4.429,5.336c0.829,1.784,2.152,3.212,2.752,5.195
			c1.461,3.72,3.028,7.656,3.52,11.984c1.413,8.502,1.321,17.38,0.953,25.105c-1.015,15.558-2.521,26.858-2.521,26.858
			s8.302-8.009,14.884-23.944c1.645-3.937,3.258-8.402,4.272-13.345c1.076-4.934,2.091-10.315,1.876-16.173
			c-0.018-5.727-0.69-12.091-3.015-18.256c-0.906-3.166-2.842-6.094-4.304-9.131c-0.86-1.468-1.999-2.774-2.983-4.188l-1.614-2.044
			l-0.814-1.022l-0.185-0.269c0.094,0.108,0.248,0.301,0.524,0.662l-0.048-0.123l-0.322-0.415c-1.383-1.875-4.151-4.566-4.41-5.757
			c-0.679-1.375-1.615-2.536-2.261-4.696c-1.492-3.651-2.644-7.887-3.259-12.154c-1.293-8.609-1.107-17.503-0.771-25.282
			c1-15.536,2.384-26.888,2.384-26.888s-8.225,8.124-14.782,23.975c-3.305,7.901-6.233,17.764-6.365,29.332
			c0.115,5.711,0.207,12.046,2.582,18.21C267.814,131.427,269.573,134.925,271.473,138.26z"/>
		<path fill="#FFFFFF" d="M435.234,297.716c-12.423-12.392-43.693-10.824-71.518-6.271c0-8.551,0-14.575,0-16.742
			c0-11.792-7.381-17.71-16.99-17.71c-9.608,0-237.745,0-247.215,0c-9.51-0.017-17.227,7.394-17.227,14.159
			c0,6.749,0,139.008,0,175.106C82.284,481.68,98.48,506,129.858,506c31.377,0,153.85,0,186.259,0
			c32.41,0,47.583-20.249,47.583-61.773c0-3.152,0-7.133,0-11.775c7.638,0.646,14.404,0.97,20.094,0.97
			c29.301,0,35.097-7.257,37.68-10.471C430.806,411.327,455.342,317.841,435.234,297.716z M131.303,408.391
			c-0.361,10.9-1.207,21.125-1.76,29.811c-0.646,8.793-1.622,16.065-1.622,21.06c-0.346,5.322-0.569,8.351-0.569,8.351
			s-1.323-2.538-3.398-7.486c-0.915-2.445-2.521-5.628-3.322-9.148c-0.93-3.552-1.937-7.55-2.821-11.944
			c-2.122-8.81-3.458-19.063-4.527-30.087c-0.43-5.519-1.261-11.237-1.292-17.003c-0.193-5.797-0.385-11.668-0.569-17.543
			c0-11.774,0.301-23.505,1.101-34.498c0.707-10.992,1.953-21.261,3.321-30.024c2.614-17.57,6.249-29.191,6.249-29.191
			s3.198,11.773,5.451,29.315c1.275,8.779,2.221,19.002,2.959,29.932c0.93,10.947,0.944,22.646,1.368,34.285
			C131.842,385.838,131.733,397.522,131.303,408.391z M398.427,402.165c-6.179,1.106-20.045,0.983-34.711-0.261
			c0-24.967,0-54.898,0-79.621c20.078-3.475,41.016-4.734,48.98-2.936C415.031,334.889,404.823,386.545,398.427,402.165z"/>
	</g>
</g>
</svg>
