<?xml version="1.0" encoding="utf-8"?>
<!-- Generator: Adobe Illustrator 16.0.0, SVG Export Plug-In . SVG Version: 6.00 Build 0)  -->
<!DOCTYPE svg PUBLIC "-//W3C//DTD SVG 1.1//EN" "http://www.w3.org/Graphics/SVG/1.1/DTD/svg11.dtd">
<svg version="1.1" id="Capa_1" xmlns="http://www.w3.org/2000/svg" xmlns:xlink="http://www.w3.org/1999/xlink" x="0px" y="0px"
	 width="500px" height="500px" viewBox="6 6 500 500" enable-background="new 6 6 500 500" xml:space="preserve">
<g>
	<g>
		<path fill="#FFFFFF" d="M400.844,214.658h-22.18c-4.579,0-9.009,0.463-13.343,1.267v-50.083c0-2.727-0.316-5.381-0.805-7.962
			c14.584-10.786,24.129-27.951,24.129-47.429c0-36.277-33.404-65.373-70.194-58.093c-12.173-12.807-29.533-20.039-47.38-19.137
			C259.677,16.714,240.71,6.488,220.478,6.488c-16.435,0-31.968,6.524-43.411,17.87c-3.045-1.241-6.16-2.239-9.326-2.97
			l-3.992-0.779c-3.067-0.487-6.135-0.754-9.275-0.803c-4.603-0.366-9.034-0.341-13.392,0.024h-1.194v0.098
			c-26.149,2.629-48.183,18.114-56.826,39.711c-25.687,4.869-45.165,27.487-45.165,54.513c0,18.869,9.495,35.499,23.909,45.529
			c-0.292,2.021-0.608,4.043-0.608,6.161v299.693c0,22.033,17.919,39.977,39.955,39.977h224.19c22.033,0,39.979-17.92,39.979-39.977
			v-61.209c4.334,0.803,8.764,1.289,13.343,1.289h22.18c40.392,0,73.261-32.895,73.261-73.287v-44.359
			C474.105,247.552,441.236,214.658,400.844,214.658z M338.66,465.535c0,7.352-5.94,13.316-13.318,13.316h-224.19
			c-7.354,0-13.318-5.965-13.318-13.316V165.843c0-7.354,5.965-13.319,13.318-13.319h224.19c7.378,0,13.318,5.965,13.318,13.319
			V465.535z M350.518,135.042L350.518,135.042c-6.866-5.649-15.583-9.179-25.176-9.179h-224.19
			c-10.153,0-19.308,3.919-26.369,10.153c-6.233-5.284-10.25-13.076-10.25-21.865c0-15.85,12.88-28.779,28.755-28.827l10.907-0.048
			l2.119-10.688c2.483-12.515,15.46-25.736,35.353-28.049h14.681c5.967,0.414,11.711,2.361,16.776,5.697l11.005,7.28l7.377-10.932
			c6.525-9.666,17.359-15.46,28.998-15.46c13.537,0,25.564,7.669,31.457,20.038l4.479,9.422l10.226-2.094
			c13.903-2.8,28.098,3.02,35.985,14.536l5.819,8.57l9.738-3.58c3.921-1.437,7.598-2.143,11.225-2.143
			c17.943,0,32.576,14.608,32.576,32.577C362.008,120.311,357.48,129.077,350.518,135.042z M434.15,332.328
			c0,18.359-14.925,33.309-33.306,33.309h-22.18c-4.749,0-9.254-1.023-13.343-2.824V257.487c4.089-1.803,8.594-2.824,13.343-2.824
			h22.18c18.358,0,33.306,14.924,33.306,33.307V332.328z"/>
		<rect x="101.152" y="201.341" fill="#FFFFFF" width="224.239" height="264.195"/>
	</g>
</g>
</svg>
