<?xml version="1.0" encoding="utf-8"?>
<!-- Generator: Adobe Illustrator 16.0.0, SVG Export Plug-In . SVG Version: 6.00 Build 0)  -->
<!DOCTYPE svg PUBLIC "-//W3C//DTD SVG 1.1//EN" "http://www.w3.org/Graphics/SVG/1.1/DTD/svg11.dtd">
<svg version="1.1" id="Layer_1" xmlns="http://www.w3.org/2000/svg" xmlns:xlink="http://www.w3.org/1999/xlink" x="0px" y="0px"
	 width="300px" height="300px" viewBox="0 0 300 300" enable-background="new 0 0 300 300" xml:space="preserve">
<circle cx="166.086" cy="212.467" r="12.931"/>
<circle cx="130.832" cy="212.467" r="12.931"/>
<g>
	<path d="M236.598,86.091c-7.752,3.715-14.066,5.41-14.667,5.565l-3.911,1.017l-2.362-3.277c-0.57-0.792-9.604-13.514-13.083-29.062
		c-16.774-8.599-35.766-13.482-55.91-13.482c-16.131,0-31.522,3.143-45.633,8.799c-4.843,16.021-16.057,28.694-16.735,29.452
		l-2.699,3.006l-3.779-1.428c-0.591-0.223-6.875-2.652-14.345-7.315c-24.32,22.43-39.564,54.553-39.564,90.246
		c0,67.793,54.962,122.756,122.758,122.756c67.802,0,122.758-54.963,122.758-122.756
		C269.423,137.345,256.956,108.003,236.598,86.091z M83.137,131.419c0-7.141,5.787-12.931,12.929-12.931
		c7.14,0,12.932,5.79,12.932,12.931c0,7.139-5.792,12.932-12.932,12.932C88.926,144.354,83.137,138.558,83.137,131.419z
		 M148.633,253.018c-25.071,0-45.396-16.033-45.396-35.816c0-19.775,20.324-35.81,45.396-35.81c25.071,0,45.39,16.034,45.39,35.81
		C194.023,236.984,173.703,253.018,148.633,253.018z M202.363,144.354c-7.142,0-12.93-5.794-12.93-12.933
		c0-7.141,5.788-12.931,12.93-12.931c7.139,0,12.93,5.79,12.93,12.931C215.292,138.558,209.501,144.354,202.363,144.354z"/>
</g>
<path d="M62.616,7.631c0,0,27.505,10.391,32.354,30.296c4.846,19.9-14.794,41.782-14.794,41.782S52.67,69.316,47.821,49.414
	C42.972,29.509,62.616,7.631,62.616,7.631z"/>
<path d="M247.085,14.18c0,0,17.202,23.849,10.259,43.12c-6.942,19.272-35.398,26.679-35.398,26.679s-17.196-23.851-10.258-43.127
	C218.629,21.581,247.085,14.18,247.085,14.18z"/>
</svg>
