<?xml version="1.0" encoding="utf-8"?>
<!-- Generator: Adobe Illustrator 16.0.0, SVG Export Plug-In . SVG Version: 6.00 Build 0)  -->
<!DOCTYPE svg PUBLIC "-//W3C//DTD SVG 1.1//EN" "http://www.w3.org/Graphics/SVG/1.1/DTD/svg11.dtd">
<svg version="1.1" id="Layer_1" xmlns="http://www.w3.org/2000/svg" xmlns:xlink="http://www.w3.org/1999/xlink" x="0px" y="0px"
	 width="300px" height="300px" viewBox="0 0 300 300" enable-background="new 0 0 300 300" xml:space="preserve">
<path stroke="#000000" stroke-width="4" stroke-miterlimit="10" d="M246.934,193.924l-2.844,25.799l-4.301,39.027l-58.105-6.391
	l-41.159-4.543c-10.942-1.204-19.126-8.5-18.263-16.294l0.593-5.002l-9.811,17.44l-50.956-28.66l-36.083-20.31
	c-0.605-0.343-5.191-2.695-5.754-3.072l-9.201,2L9.8,187.64L9.217,259.65c0,18.136,20.655,32.85,46.136,32.85h95.806h135.261
	v-90.849v-7.736h-39.49v0.009H246.934z"/>
<path d="M22.204,199.685H7.739V3.803h227.141c29.428,0,53.371,17.98,53.371,40.083v148.566h-14.467V43.886
	c0-13.885-17.818-25.618-38.904-25.618H22.204V199.685z"/>
<path d="M108.443,226.881l-67.568-35.845c-4.577-2.428-8.261-6.077-10.364-10.283c-2.479-4.946-2.561-10.295-0.235-14.676
	l23.555-43.56l16.118-30.395l67.218,35.659c4.58,2.432,8.261,6.082,10.363,10.281c2.48,4.945,2.564,10.296,0.235,14.677
	L108.443,226.881z M75.948,111.685l-9.365,17.666l-23.558,43.558c-0.142,0.561,0.911,3.377,4.627,5.351l54.791,29.063l32.547-61.361
	c0.17-0.611-0.885-3.426-4.603-5.397L75.948,111.685z"/>
<path d="M228.833,242.712l-76.037-8.385c-5.147-0.565-9.912-2.599-13.417-5.726c-4.128-3.685-6.184-8.625-5.638-13.558l5.818-49.171
	l3.767-34.199l75.63,8.336c5.156,0.57,9.924,2.605,13.43,5.729c4.126,3.681,6.177,8.624,5.634,13.559L228.833,242.712z
	 M156.117,147.636l-2.188,19.88l-5.819,49.174c0.078,0.57,2.093,2.8,6.269,3.261l61.654,6.797l7.604-69.039
	c-0.063-0.631-2.074-2.863-6.272-3.322L156.117,147.636z"/>
<path d="M148.795,149.301c-4.65,0-8.789-1.748-11.651-4.924l-32.887-37.024L81.213,81.812l56.482-50.98
	c4.478-4.04,10.101-6.357,15.427-6.357c4.649,0,8.788,1.75,11.653,4.923l56.22,62.297l-56.777,51.249
	C159.745,146.981,154.123,149.301,148.795,149.301z M147.927,134.727c0.035,0,0.327,0.106,0.871,0.106c1.36,0,3.581-0.693,5.73-2.63
	l46.045-41.556l-46.534-51.562c-0.047-0.028-0.342-0.148-0.917-0.148c-1.363,0-3.585,0.69-5.731,2.629l-45.747,41.289l13.396,14.847
	l32.884,37.024C147.923,134.727,147.924,134.727,147.927,134.727z"/>
</svg>
