<?xml version="1.0" encoding="utf-8"?>
<!-- Generator: Adobe Illustrator 16.0.0, SVG Export Plug-In . SVG Version: 6.00 Build 0)  -->
<!DOCTYPE svg PUBLIC "-//W3C//DTD SVG 1.1//EN" "http://www.w3.org/Graphics/SVG/1.1/DTD/svg11.dtd">
<svg version="1.1" id="Layer_1" xmlns="http://www.w3.org/2000/svg" xmlns:xlink="http://www.w3.org/1999/xlink" x="0px" y="0px"
	 width="190px" height="300px" viewBox="47.5 0 190 300" enable-background="new 47.5 0 190 300" xml:space="preserve">
<path d="M230.267,86.203l-8.326-0.093l0.521-46.467c0-14.123-11.109-25.65-24.765-25.65H62.558l-0.277,72.181l-8.326-0.032
	l0.311-80.474h143.432c18.245,0,33.09,15.263,33.09,34.023L230.267,86.203z"/>
<path stroke="#000000" stroke-width="4" stroke-miterlimit="10" d="M228.491,86.156l-0.049,4.259
	c-2.227,45.503-40.017,81.714-86.302,81.714c-47.723,0-86.408-38.491-86.408-85.973h172.71H228.491z"/>
<rect x="136.321" y="165.649" stroke="#000000" stroke-width="6" stroke-miterlimit="10" width="15.726" height="104.534"/>
<path d="M98.876,297.419c-4.086,0-7.4-3.313-7.4-7.4s3.314-7.399,7.4-7.399h89.222c4.087,0,7.4,3.312,7.4,7.399s-3.313,7.4-7.4,7.4
	H98.876z"/>
</svg>
