<?xml version="1.0" encoding="utf-8"?>
<!-- Generator: Adobe Illustrator 16.0.0, SVG Export Plug-In . SVG Version: 6.00 Build 0)  -->
<!DOCTYPE svg PUBLIC "-//W3C//DTD SVG 1.1//EN" "http://www.w3.org/Graphics/SVG/1.1/DTD/svg11.dtd">
<svg version="1.1" id="Layer_1" xmlns="http://www.w3.org/2000/svg" xmlns:xlink="http://www.w3.org/1999/xlink" x="0px" y="0px"
	 width="300px" height="300px" viewBox="0 0 300 300" enable-background="new 0 0 300 300" xml:space="preserve">
<path stroke="#000000" stroke-width="4" stroke-miterlimit="10" d="M144.207,50.035c-0.006,1.994-2.518,3.604-5.601,3.592
	c-3.085-0.012-5.582-1.637-5.572-3.631l0.13-35.929c0.007-1.994,2.516-3.605,5.604-3.593c3.083,0.012,5.58,1.641,5.572,3.633
	L144.207,50.035z"/>
<path stroke="#000000" stroke-width="4" stroke-miterlimit="10" d="M166.91,59.137c-0.925,1.767-3.895,2.042-6.624,0.612
	c-2.733-1.429-4.202-4.023-3.276-5.788l16.649-31.841c0.925-1.767,3.893-2.042,6.625-0.61c2.734,1.429,4.199,4.024,3.276,5.788
	L166.91,59.137z"/>
<path stroke="#000000" stroke-width="4" stroke-miterlimit="10" d="M120.704,54.188c0.893,1.784-0.62,4.353-3.376,5.734
	c-2.76,1.382-5.722,1.055-6.612-0.728L94.622,27.068c-0.892-1.783,0.622-4.352,3.383-5.733c2.756-1.383,5.718-1.053,6.613,0.728
	L120.704,54.188z"/>
<path d="M255.247,264.154h-45.193c-19.256,10.381-42.059,16.406-66.521,16.406c-24.46,0-47.254-6.032-66.507-16.406H32.493
	c-7.898,0-14.296,6.399-14.296,14.298c0,7.899,6.402,14.298,14.296,14.298h222.754c7.896,0,14.297-6.398,14.297-14.298
	C269.544,270.554,263.142,264.154,255.247,264.154z"/>
<path d="M189.987,73.028l45.361-50.912c2.302-2.582,5.361-4.185,8.613-4.51c3.099-0.309,5.98,0.581,8.148,2.515
	c2.036,1.81,3.251,4.398,3.416,7.29c0.195,3.396-1.069,6.889-3.502,9.614l-31.565,36.003h1.497c3.826,0,7.523,0.464,11.042,1.316
	l26.74-30.499c4.207-4.718,6.418-10.926,6.066-17.028c-0.326-5.637-2.759-10.747-6.846-14.382
	c-4.343-3.874-10.041-5.675-16.025-5.071c-5.828,0.584-11.251,3.393-15.271,7.905L176.198,73.03h13.788V73.028z"/>
<path d="M24.456,79.635h117.298h81.937c22.094,0,40.003,15.842,40.003,35.388l-0.789,60.117
	c-3.081,53.927-55.341,96.843-119.355,96.843c-65.999,0-119.498-45.62-119.498-101.891L24.456,79.635z"/>
</svg>
