<?xml version="1.0" encoding="utf-8"?>
<!-- Generator: Adobe Illustrator 16.0.0, SVG Export Plug-In . SVG Version: 6.00 Build 0)  -->
<!DOCTYPE svg PUBLIC "-//W3C//DTD SVG 1.1//EN" "http://www.w3.org/Graphics/SVG/1.1/DTD/svg11.dtd">
<svg version="1.1" id="Layer_1" xmlns="http://www.w3.org/2000/svg" xmlns:xlink="http://www.w3.org/1999/xlink" x="0px" y="0px"
	 width="300px" height="300px" viewBox="0 0 300 300" enable-background="new 0 0 300 300" xml:space="preserve">
<g>
	<path d="M249.097,48.619c-5.745,0-11.086,3.816-15.553,8.647c-3.166,6.197-7.088,12.062-11.729,17.477
		c-0.197,0.391-0.373,0.745-0.518,1.041h-0.402c-5.533,6.258-12.024,11.908-19.422,16.752
		c-14.106,9.235-30.425,14.373-47.191,14.858l-5.601,0.161l-0.009-31.771h-13.884l-0.007,31.771l-5.601-0.161
		c-16.768-0.485-33.085-5.623-47.191-14.858c-7.399-4.844-20.869-16.752-20.869-16.752c-4.859-8.397-14.117-21.456-24.752-21.456
		C20.703,54.327,8,82.697,8,82.697s12.703,28.368,28.367,28.368c3.032,0,5.949-1.07,8.688-2.784v52.118v33.11
		c0,52.83,42.832,95.66,95.667,95.66c52.831,0,95.661-42.83,95.661-95.66v-28.553V99.509c3.824,3.422,8.141,5.846,12.714,5.846
		c15.666,0,28.368-28.368,28.368-28.368S264.763,48.619,249.097,48.619z M105.015,159.529c-6.822,0-12.351-5.528-12.351-12.348
		c0-6.819,5.529-12.348,12.351-12.348c6.819,0,12.347,5.529,12.347,12.348C117.363,154.001,111.834,159.529,105.015,159.529z
		 M185.449,159.529c-6.82,0-12.35-5.528-12.35-12.348c0-6.819,5.529-12.348,12.35-12.348c6.818,0,12.349,5.529,12.349,12.348
		C197.798,154.001,192.268,159.529,185.449,159.529z"/>
</g>
<path d="M158.924,97.714c13.254-0.383,26.568-4.319,38.472-12.115c26.009-17.031,38.123-46.023,32.523-74.769
	c-4.696,16.634-15.185,31.709-30.784,41.924c-12.624,8.266-26.484,11.948-40.22,11.676L158.924,97.714z"/>
<path d="M125.33,97.714c-13.252-0.383-26.567-4.319-38.47-12.115C60.851,68.567,48.739,39.575,54.335,10.83
	c4.696,16.634,15.186,31.709,30.784,41.924c12.623,8.266,26.488,11.948,40.22,11.676L125.33,97.714z"/>
</svg>
