<?xml version="1.0" encoding="utf-8"?>
<!-- Generator: Adobe Illustrator 16.0.0, SVG Export Plug-In . SVG Version: 6.00 Build 0)  -->
<!DOCTYPE svg PUBLIC "-//W3C//DTD SVG 1.1//EN" "http://www.w3.org/Graphics/SVG/1.1/DTD/svg11.dtd">
<svg version="1.1" id="Layer_1" xmlns="http://www.w3.org/2000/svg" xmlns:xlink="http://www.w3.org/1999/xlink" x="0px" y="0px"
	 width="101.083px" height="188.667px" viewBox="97.834 51.167 101.083 188.667"
	 enable-background="new 97.834 51.167 101.083 188.667" xml:space="preserve">
<path d="M120.66,102.006l-6-0.012l0.07-37.367h51.375c9.74,0,17.664,8.137,17.664,18.138V102h-6V82.765
	c0-6.693-5.231-12.138-11.664-12.138H120.72L120.66,102.006z"/>
<g>
	<path stroke="#000000" stroke-width="6" stroke-miterlimit="10" d="M180.769,106.336v-1.557h-63.107
		c0,17.35,14.135,31.415,31.572,31.415C166.149,136.194,179.956,122.963,180.769,106.336L180.769,106.336z"/>
	<rect x="144.078" y="140.84" stroke="#000000" stroke-width="6" stroke-miterlimit="10" width="11.333" height="68.333"/>
</g>
<path d="M118.833,229.8c-2.945,0-5.333-2.388-5.333-5.333s2.388-5.333,5.333-5.333h64.298c2.945,0,5.333,2.388,5.333,5.333
	s-2.388,5.333-5.333,5.333H118.833L118.833,229.8z"/>
</svg>
