<?xml version="1.0" encoding="utf-8"?>
<!-- Generator: Adobe Illustrator 16.0.0, SVG Export Plug-In . SVG Version: 6.00 Build 0)  -->
<!DOCTYPE svg PUBLIC "-//W3C//DTD SVG 1.1//EN" "http://www.w3.org/Graphics/SVG/1.1/DTD/svg11.dtd">
<svg version="1.1" id="Layer_1" xmlns="http://www.w3.org/2000/svg" xmlns:xlink="http://www.w3.org/1999/xlink" x="0px" y="0px"
	 width="300px" height="300px" viewBox="0 0 300 300" enable-background="new 0 0 300 300" xml:space="preserve">
<g>
	<path d="M256.593,98.099h-13.467c1.237,3.703,1.94,7.663,1.94,11.801v0.152h11.526c5.93,0,9.614,1.993,10.404,2.977v60.729h-22.788
		c-0.29,4.053-0.798,8.044-1.535,11.954h36.279v-73.029C278.948,104.371,269.338,98.099,256.593,98.099z"/>
	<path stroke="#000000" stroke-width="4" stroke-miterlimit="10" d="M143.396,48.271c-0.01,1.954-2.471,3.534-5.496,3.524
		c-3.03-0.012-5.479-1.607-5.465-3.563l0.125-35.252c0.008-1.957,2.469-3.536,5.499-3.526c3.027,0.013,5.472,1.61,5.466,3.564
		L143.396,48.271z"/>
	<path stroke="#000000" stroke-width="4" stroke-miterlimit="10" d="M165.674,57.199c-0.904,1.735-3.822,2.004-6.504,0.603
		c-2.686-1.403-4.12-3.946-3.211-5.682l16.334-31.24c0.907-1.733,3.817-2.005,6.504-0.601c2.681,1.403,4.119,3.947,3.213,5.681
		L165.674,57.199z"/>
	<path stroke="#000000" stroke-width="4" stroke-miterlimit="10" d="M120.335,52.346c0.874,1.751-0.611,4.271-3.313,5.625
		c-2.707,1.357-5.613,1.036-6.489-0.713L94.746,25.737c-0.875-1.75,0.609-4.27,3.317-5.623c2.704-1.356,5.609-1.036,6.489,0.713
		L120.335,52.346z"/>
	<path d="M231.086,258.67h-40.174c-15.386,8.821-33.224,13.883-52.257,13.883c-19.024,0-36.845-5.069-52.225-13.883H45.687
		c-8.804,0-15.938,7.137-15.938,15.939c0,8.801,7.134,15.938,15.938,15.938h185.399c8.802,0,15.938-7.137,15.938-15.938
		C247.024,265.807,239.888,258.67,231.086,258.67z"/>
</g>
<g>
	<path d="M204.536,79.324h-67.902H88.37l0.58,62.059c0.002,0.267-0.037,0.52-0.06,0.778l13.201-0.123
		c5.333-0.048,9.685,2.991,9.716,6.787l0.312,34.533l0.172,19.008l-28.303,0.262l-20.051,0.181
		c-5.329,0.052-9.681-2.989-9.716-6.785l-0.037-34.534l-0.169-19.013l24.041-0.215c-0.029-0.253-0.07-0.503-0.072-0.763
		l-0.581-62.173H39.416l-0.337,87.491c0,54.421,44.339,98.542,99.041,98.542c53.054,0,96.367-41.506,98.925-93.663l0.648-58.142
		C237.693,94.646,222.849,79.324,204.536,79.324z"/>
</g>
</svg>
