<?xml version="1.0" encoding="utf-8"?>
<!-- Generator: Adobe Illustrator 16.0.0, SVG Export Plug-In . SVG Version: 6.00 Build 0)  -->
<!DOCTYPE svg PUBLIC "-//W3C//DTD SVG 1.1//EN" "http://www.w3.org/Graphics/SVG/1.1/DTD/svg11.dtd">
<svg version="1.1" id="Layer_1" xmlns="http://www.w3.org/2000/svg" xmlns:xlink="http://www.w3.org/1999/xlink" x="0px" y="0px"
	 width="300px" height="300px" viewBox="0 0 300 300" enable-background="new 0 0 300 300" xml:space="preserve">
<path d="M260.139,248.34h-50.66c-18.898,9.35-40.85,14.709-64.269,14.709c-23.406,0-45.327-5.369-64.216-14.709h-50.02
	c-8.125,0-14.708,6.587-14.708,14.709c0,8.126,6.584,14.711,14.708,14.711h229.165c8.123,0,14.708-6.585,14.708-14.711
	C274.847,254.927,268.262,248.34,260.139,248.34z"/>
<path d="M96.446,109.557c-1.32-6.624-2.335-12.692-2.191-17.283c0.201-6.306,2.407-6.762,4.02-7.097
	c4.884-1.022,10.749,2.563,15.288,9.166l7.571,11.252l2.232-13.03c1.422-8.302,5.176-13.673,10.303-14.737
	c0.568-0.119,1.153-0.178,1.739-0.178c7.362,0,16.973,9.618,20.316,25.723c0.243,1.176,0.809,4.161,0.812,4.168l0.381,2.016h9.187
	c1.101-1.409,2.479-3.587,4.206-6.335c2.359-3.756,5.593-8.901,7.562-10.87c1.153-1.151,2.517-1.71,4.169-1.71
	c6.294,0,14.869,7.713,17.669,18.916h10.831c-0.057-0.309-0.103-0.648-0.166-0.95c-3.324-16.015-15.769-28.557-28.334-28.557
	c-4.474,0-8.503,1.662-11.654,4.81c-2.003,1.999-4.252,5.24-6.435,8.614c-5.486-15.687-16.73-26.413-28.543-26.413
	c-1.311,0-2.62,0.134-3.892,0.399c-6.906,1.432-12.346,6.216-15.677,13.549c-6.039-5.288-13.136-7.571-19.717-6.201
	c-5.469,1.134-12.065,5.026-12.452,17.131c-0.16,5.115,0.74,11.142,1.984,17.619H96.446z"/>
<path d="M23.878,108.434c0-19.154,10.826-39.51,30.89-39.51c4.963,0,9.751,1.133,14.229,3.366l11.798,4.796l-0.631-8.501
	c-0.081-1.069-0.121-2.142-0.121-3.19c0-27.397,1.446-37.75,16.768-37.75c11.399,0,22.039,6.178,28.421,16.461l4.851,8.071
	l4.504-7.745c6.201-10.669,16.549-16.79,28.387-16.79c18.979,0,34.419,16.935,34.419,37.75c0,1.477-0.102,5.229-0.102,5.238
	l-0.241,9.148l8.052-4.352c2.331-1.258,5.775-3.68,10.133-6.747c6.091-4.286,13.674-9.617,18.379-11.704
	c2.719-1.206,5.708-1.817,8.885-1.817c14.564,0,31.494,13.248,31.494,30.325c0,10.289-4.188,24.833-10.55,36.955
	c2.781,2.793,5.104,5.95,6.87,9.381c0.358-0.605,0.719-1.198,1.072-1.824c8.019-14.215,13.198-31.687,13.198-44.51
	c0-23.418-22.221-40.916-42.085-40.916c-4.664,0-9.097,0.917-13.176,2.724c-5.657,2.508-13.373,7.935-20.183,12.725
	c-0.451,0.317-0.902,0.635-1.347,0.947c-2.089-24.588-21.394-43.914-44.823-43.914c-13.106,0-24.8,5.593-33.05,15.587
	c-8.451-9.869-20.397-15.587-33.113-15.587c-25.586,0-27.245,22.464-27.352,43.907c-4.704-1.746-9.626-2.628-14.69-2.628
	c-23.647,0-42.25,24.575-40.19,55.757C14.577,114.091,23.878,108.813,23.878,108.434z"/>
<path d="M28.406,115.399h115.072h80.374c21.679,0,39.248,15.54,39.248,34.716l-0.771,10.577
	c-3.026,52.903-54.294,95.003-117.092,95.003c-64.744,0-117.228-44.753-117.228-99.953L28.406,115.399z"/>
</svg>
