<?xml version="1.0" encoding="utf-8"?>
<!-- Generator: Adobe Illustrator 16.0.0, SVG Export Plug-In . SVG Version: 6.00 Build 0)  -->
<!DOCTYPE svg PUBLIC "-//W3C//DTD SVG 1.1//EN" "http://www.w3.org/Graphics/SVG/1.1/DTD/svg11.dtd">
<svg version="1.1" id="Layer_1" xmlns="http://www.w3.org/2000/svg" xmlns:xlink="http://www.w3.org/1999/xlink" x="0px" y="0px"
	 width="300px" height="300px" viewBox="0 0 300 300" enable-background="new 0 0 300 300" xml:space="preserve">
<path d="M144.481,84.489c-58.301,0-105.562,47.262-105.562,105.562c0,58.301,47.259,105.567,105.562,105.567
	c58.301,0,105.565-47.259,105.565-105.567C250.044,131.751,202.781,84.489,144.481,84.489z M110.387,159.869
	c-6.139,0-11.121-4.981-11.121-11.123c0-6.14,4.979-11.12,11.121-11.12c6.143,0,11.122,4.978,11.122,11.12
	C121.507,154.886,116.531,159.869,110.387,159.869z M144.481,212.392l-23.56-23.56h47.116L144.481,212.392z M180.125,159.869
	c-6.136,0-11.121-4.981-11.121-11.123c0-6.14,4.981-11.12,11.121-11.12c6.138,0,11.117,4.978,11.117,11.12
	C191.24,154.886,186.263,159.869,180.125,159.869z"/>
<path d="M169.616,78.646l-4.161-0.894c-2.413-0.518-4.394-0.883-6.232-1.15c-4.463-0.651-8.996-0.98-13.479-0.98l-10.38,0.098
	l26.346-49.611c2.978-5.613,8.609-9.102,14.693-9.102c2.476,0,4.931,0.609,7.102,1.763c7.685,4.082,10.43,14.018,6.121,22.149
	L169.616,78.646z M153.966,64.691c2.302,0.183,4.597,0.439,6.877,0.771c0.896,0.13,1.814,0.279,2.784,0.452l16.055-30.269
	c1.405-2.65,0.751-5.762-1.459-6.935c-2.174-1.153-5.218,0.125-6.569,2.676L153.966,64.691z"/>
<g>
	<path d="M137.005,75.672l6.007-11.317c-0.36,0.011-0.716,0.006-1.079,0.021l-13.637-40.928c-0.558-1.665-0.495-3.399,0.17-4.885
		c0.594-1.323,1.608-2.282,2.855-2.696c2.723-0.906,5.913,1.085,6.97,4.249l10.876,32.648l7.291-13.73l-7.487-22.48
		c-2.43-7.281-8.958-12.172-16.241-12.172c-1.685,0-3.353,0.271-4.963,0.802c-4.276,1.426-7.679,4.543-9.574,8.775
		c-1.824,4.069-2.026,8.704-0.577,13.05l16.375,49.152L137.005,75.672z"/>
</g>
</svg>
