<?xml version="1.0" encoding="utf-8"?>
<!-- Generator: Adobe Illustrator 15.0.0, SVG Export Plug-In . SVG Version: 6.00 Build 0)  -->
<!DOCTYPE svg PUBLIC "-//W3C//DTD SVG 1.1//EN" "http://www.w3.org/Graphics/SVG/1.1/DTD/svg11.dtd">
<svg version="1.1" id="Layer_1" xmlns="http://www.w3.org/2000/svg" xmlns:xlink="http://www.w3.org/1999/xlink" x="0px" y="0px"
	 width="300px" height="300px" viewBox="0 0 300 300" enable-background="new 0 0 300 300" xml:space="preserve">
<g>
	<path d="M263.284,127.4c0-64.687-52.627-117.315-117.315-117.315c-64.687,0-117.315,52.628-117.315,117.315v4.692h234.63V127.4z
		 M38.14,122.707C40.606,65.363,88.03,19.469,145.969,19.469c57.939,0,105.364,45.894,107.83,103.238H38.14z"/>
	<circle cx="118.445" cy="59.782" r="11.306"/>
	<circle cx="157.826" cy="37.168" r="11.306"/>
	<circle cx="198.961" cy="62.842" r="11.306"/>
	<circle cx="67.756" cy="93.414" r="11.306"/>
	<circle cx="106.322" cy="104.722" r="11.306"/>
	<circle cx="225.505" cy="104.722" r="11.306"/>
	<circle cx="157.826" cy="93.414" r="11.306"/>
	<path d="M237.31,239.057c23.907-2.905,29.212-19.349,29.212-33.355c0-10.925-3.814-17.507-9.407-21.483h1.062v-13.106h-0.004v3.322
		c0-15.115-12.25-27.366-27.363-27.366H115.325h-80.47l-0.556,9.786c0,10.419,5.826,19.478,14.397,24.1
		c-15.104,5.354-24.692,17.995-24.692,34.316c0,8.798,3.587,17.277,10.136,24.138l0.157,25.042
		c0,15.111,12.252,27.035,27.367,27.035H118.5h140.038V265.15C258.537,252.276,249.374,241.857,237.31,239.057z M91.746,237.768
		c0.309-0.217,0.617-0.435,0.92-0.647c0.018,0.218,0.048,0.433,0.069,0.65L91.746,237.768z M216.283,238.309
		c0.003-0.39,0.007-0.779,0.009-1.168c1.229,0.458,2.476,0.842,3.735,1.168H216.283z M216.729,227.109l-10.487-4.266l0.567,7.54
		c0.069,0.951,0.106,1.91,0.106,2.854c0,24.527-1.298,33.798-15.037,33.798c-10.208,0-19.737-5.531-25.459-14.75l-4.308-7.127
		l-3.979,6.848c-5.554,9.554-14.82,15.032-25.42,15.032c-16.995,0-30.823-15.163-30.823-33.798c0-1.322,0.09-4.675,0.09-4.683
		l0.215-8.113l-7.138,3.861c-2.079,1.123-5.15,3.284-9.038,6.019c-5.455,3.835-12.244,8.612-16.462,10.479
		c-2.438,1.08-5.116,1.627-7.962,1.627c-6.586,0-13.783-3.026-19.254-8.099c-5.773-5.349-8.952-12.12-8.952-19.062
		c0-19.155,16.272-27.728,32.399-27.728h160.526c21.736,0,30.822,2.522,30.822,18.157c0,16.891-8.531,24.423-27.666,24.423
		C225.029,230.124,220.741,229.109,216.729,227.109z"/>
</g>
</svg>
