<?xml version="1.0" encoding="utf-8"?>
<!-- Generator: Adobe Illustrator 16.0.0, SVG Export Plug-In . SVG Version: 6.00 Build 0)  -->
<!DOCTYPE svg PUBLIC "-//W3C//DTD SVG 1.1//EN" "http://www.w3.org/Graphics/SVG/1.1/DTD/svg11.dtd">
<svg version="1.1" id="Layer_1" xmlns="http://www.w3.org/2000/svg" xmlns:xlink="http://www.w3.org/1999/xlink" x="0px" y="0px"
	 width="300px" height="238.5px" viewBox="0 61.5 300 238.5" enable-background="new 0 61.5 300 238.5" xml:space="preserve">
<g>
	<path d="M54.029,267.938l127.259-0.861H291v-37.208H9.521C12.825,251.41,31.487,267.938,54.029,267.938z"/>
	<rect x="9" y="153.493" width="282" height="41.125"/>
</g>
<g>
	<path d="M244.794,117.999c-5.099,4.611-11.836,7.447-19.235,7.447c-15.854,0-28.752-12.896-28.752-28.748
		c0-1.146,0.087-2.271,0.217-3.38c-1.299-0.114-2.607-0.188-3.937-0.188c-4.975,0-9.759,0.8-14.236,2.29L28.09,141.743h253.338
		L244.794,117.999z"/>
</g>
<circle cx="226.05" cy="97.047" r="17.564"/>
</svg>
