<?xml version="1.0" encoding="utf-8"?>
<!-- Generator: Adobe Illustrator 16.0.0, SVG Export Plug-In . SVG Version: 6.00 Build 0)  -->
<!DOCTYPE svg PUBLIC "-//W3C//DTD SVG 1.1//EN" "http://www.w3.org/Graphics/SVG/1.1/DTD/svg11.dtd">
<svg version="1.1" id="Layer_1" xmlns="http://www.w3.org/2000/svg" xmlns:xlink="http://www.w3.org/1999/xlink" x="0px" y="0px"
	 width="214px" height="300px" viewBox="47.5 0 214 300" enable-background="new 47.5 0 214 300" xml:space="preserve">
<path d="M238.565,240.189h-24.156v-7.433h16.724v-85.034c0-4.233-4.002-7.678-8.92-7.678h-8.217v-7.433h8.217
	c9.017,0,16.353,6.778,16.353,15.11V240.189z"/>
<path d="M82.166,101.646c-6.132-4.77-10.421-13.307-10.421-22.394c0-14.608,10.423-26.493,23.235-26.493
	c3.329,0,6.544,0.788,9.554,2.341l5.611,2.896l-0.191-6.312l-0.016-0.395c-0.053-0.736-0.081-1.493-0.081-2.246
	c0-14.607,10.422-26.493,23.233-26.493c7.667,0,14.839,4.318,19.145,11.491l3.418,5.944l3.204-5.698
	c4.192-7.459,11.164-11.736,19.128-11.736c12.812,0,23.235,11.885,23.235,26.493c0,1.038-0.068,3.675-0.068,3.682l-0.166,6.521
	l5.694-3.182c2.751-1.538,6.388-3.304,10.112-3.304c12.812,0,23.233,11.885,23.233,26.493s-10.422,26.494-23.233,26.494h-2.628
	v7.433h2.628c16.909,0,30.666-15.22,30.666-33.927s-13.756-33.925-30.666-33.925c-2.964,0-5.726,0.674-8.198,1.606
	c-0.987-17.728-14.339-31.817-30.609-31.817c-8.885,0-16.815,3.883-22.427,10.823c-5.753-6.855-13.849-10.823-22.468-10.823
	c-16.091,0-29.328,13.783-30.571,31.239c-2.445-0.684-4.966-1.029-7.54-1.029c-16.91,0-30.667,15.219-30.667,33.925
	c0,9.458,3.012,16.705,8.513,22.44L82.166,101.646z"/>
<path d="M71.426,105.84v27.075l-0.664,126.738c0,13.934,10.272,25.23,22.944,25.23h47.649h67.271V215.11V105.84H71.426z
	 M120.39,238.884c-0.017,4.968-3.733,8.982-8.29,8.965c-4.562-0.016-8.246-4.059-8.226-9.025l0.331-89.463
	c0.016-4.964,3.732-8.979,8.292-8.964c4.562,0.021,8.243,4.062,8.226,9.022L120.39,238.884z M148.883,238.884
	c-0.017,4.968-3.733,8.982-8.288,8.965c-4.562-0.016-8.246-4.059-8.227-9.025l0.332-89.463c0.016-4.964,3.732-8.979,8.292-8.964
	c4.562,0.021,8.243,4.062,8.227,9.022L148.883,238.884z M178.763,238.884c-0.019,4.968-3.734,8.982-8.289,8.965
	c-4.563-0.016-8.246-4.059-8.227-9.025l0.331-89.463c0.016-4.964,3.732-8.979,8.292-8.964c4.562,0.021,8.242,4.062,8.227,9.022
	L178.763,238.884z"/>
</svg>
