<?xml version="1.0" encoding="utf-8"?>
<!-- Generator: Adobe Illustrator 16.0.0, SVG Export Plug-In . SVG Version: 6.00 Build 0)  -->
<!DOCTYPE svg PUBLIC "-//W3C//DTD SVG 1.1//EN" "http://www.w3.org/Graphics/SVG/1.1/DTD/svg11.dtd">
<svg version="1.1" id="Layer_1" xmlns="http://www.w3.org/2000/svg" xmlns:xlink="http://www.w3.org/1999/xlink" x="0px" y="0px"
	 width="200px" height="300px" viewBox="49.5 0 200 300" enable-background="new 49.5 0 200 300" xml:space="preserve">
<path d="M234.848,278.535c0,8.798-7.785,16.688-17.39,16.688c-9.606,0-17.392-7.132-17.392-15.931v-1.011v-99.295h15.954
	l-0.033,99.485L234.848,278.535z"/>
<path d="M192.301,278.437c0,8.801-7.787,16.691-17.392,16.691c-9.606,0-17.392-7.133-17.392-15.932v-1.013v-99.296h15.956
	l-0.035,99.486L192.301,278.437z"/>
<path d="M63.883,278.398c0,8.8,7.787,16.69,17.393,16.69c9.604,0,17.391-7.133,17.391-15.93v-1.014v-99.295H82.709l0.035,99.487
	L63.883,278.398z"/>
<path d="M107.896,278.398c0,8.8,7.787,16.69,17.391,16.69c9.606,0,17.391-7.133,17.391-15.93v-1.014v-99.295h-15.956l0.036,99.487
	L107.896,278.398z"/>
<path d="M147.886,4.777c-41.359,0-74.904,33.528-74.904,74.887v22.35v70.961h149.807v-67.394V79.665
	C222.789,38.305,189.245,4.777,147.886,4.777z M120.873,81.354c-5.338,0-9.667-4.33-9.667-9.669c0-5.336,4.328-9.668,9.667-9.668
	s9.669,4.33,9.669,9.668C130.541,77.024,126.212,81.354,120.873,81.354z M180.262,81.354c-5.338,0-9.668-4.33-9.668-9.669
	c0-5.336,4.328-9.668,9.668-9.668s9.668,4.33,9.668,9.668C189.93,77.024,185.6,81.354,180.262,81.354z"/>
</svg>
