<?xml version="1.0" encoding="utf-8"?>
<!-- Generator: Adobe Illustrator 16.0.0, SVG Export Plug-In . SVG Version: 6.00 Build 0)  -->
<!DOCTYPE svg PUBLIC "-//W3C//DTD SVG 1.1//EN" "http://www.w3.org/Graphics/SVG/1.1/DTD/svg11.dtd">
<svg version="1.1" id="Layer_1" xmlns="http://www.w3.org/2000/svg" xmlns:xlink="http://www.w3.org/1999/xlink" x="0px" y="0px"
	 width="178px" height="276.5px" viewBox="59.5 0 178 276.5" enable-background="new 59.5 0 178 276.5" xml:space="preserve">
<path d="M221.212,100.407l-4.908-3.45l3.153-4.479c1.475-2.043,2.258-4.471,2.258-7.012c0-6.624-5.389-12.013-12.013-12.013H173.25
	v-6h36.452c9.933,0,18.013,8.081,18.013,18.013c0,3.81-1.176,7.452-3.399,10.533l-0.144,0.196L221.212,100.407z"/>
<polygon points="90.545,99.85 71.728,67.453 151,67.453 151,73.453 82.152,73.453 95.733,96.836 "/>
<path d="M167.792,61.42v-9.438h8.444h38.503c2.877,0,5.207-2.332,5.207-5.207c0-2.876-2.33-5.207-5.207-5.207h-52.172
	c-2.875,0-5.207,2.331-5.207,5.207v62.81c0,2.876,2.332,5.208,5.207,5.208s5.208-2.332,5.208-5.208L167.792,61.42z"/>
<polygon stroke="#000000" stroke-width="6" stroke-miterlimit="10" points="156.994,188.84 156.994,238.173 145.661,238.173 
	145.661,188.84 144.036,185.971 93.139,98.343 94.737,101.096 217.061,101.096 218.758,98.682 157.37,186.018 "/>
<path d="M118.833,257.8c-2.945,0-5.333-2.388-5.333-5.333s2.388-5.333,5.333-5.333h64.298c2.945,0,5.333,2.388,5.333,5.333
	s-2.388,5.333-5.333,5.333H118.833z"/>
</svg>
