<?xml version="1.0" encoding="utf-8"?>
<!-- Generator: Adobe Illustrator 21.0.2, SVG Export Plug-In . SVG Version: 6.00 Build 0)  -->
<svg version="1.1" id="Layer_1" xmlns="http://www.w3.org/2000/svg" xmlns:xlink="http://www.w3.org/1999/xlink" x="0px" y="0px"
	 viewBox="0 0 97.8 148.9" style="enable-background:new 0 0 97.8 148.9;" xml:space="preserve">
<style type="text/css">
	.st0{fill:#40B3A1;}
	.st1{fill:#FFFFFF;}
	.st2{fill:#8DC63F;}
</style>
<g>
	<g>
		<path class="st0" d="M60.1,125.8l-32-57l33-35.2c0,0,5.4-5.2,2.3-17.4l29,48.6c0,0,12.7,17.5-0.6,29.9L60.1,125.8z"/>
	</g>
	<g>
		<path class="st1" d="M72.5,63.3L38.8,6.2c0,0,9.1-15,21.8,7.4L91,65.8C91,65.8,83.4,52.2,72.5,63.3"/>
	</g>
	<g>
		<path class="st0" d="M40.4,6.3l32.4,54.9c2.7-2.4,5.5-3.6,8.3-3.6c1.5,0,2.8,0.3,4.1,0.9L59.5,14.3C55.1,6.7,50.7,2.7,46.7,2.7
			C43.6,2.7,41.3,5.1,40.4,6.3 M89.8,66.5l-0.1-0.2c-0.4-0.6-3.8-6-8.6-6c-2.4,0-5,1.3-7.6,4l-1.2,1.3l-35-59.3l0.4-0.7
			C37.8,5.3,41.1,0,46.7,0c5.1,0,10.2,4.4,15.1,13L92,64.9c0.1,0.1,0.1,0.2,0.1,0.2L89.8,66.5z"/>
	</g>
	<g>
		<path class="st1" d="M39.5,112.4c0,0-9.4,6.6-6,13.9l4.9,8.4c4.3,7.6,8.7,11.6,12.8,11.6c3.1,0,5.4-2.4,6.3-3.6L39.5,112.4z"/>
	</g>
	<g>
		<path class="st2" d="M51.1,146.2L51.1,146.2c-4,0-8.4-4-12.8-11.6l-4.9-8.4c-3.4-7.5,6-13.9,6-13.9l17.9,30.3
			C56.5,143.8,54.2,146.2,51.1,146.2 M69.8,80.1l-32-57L6.1,54.2C-7.2,66.6,5.5,84.1,5.5,84.1l15.6,26.2L36,136
			c4.9,8.6,10,13,15.1,13h0c5.6,0,8.9-5.3,9.1-5.5l0.4-0.7l-19.1-32.4L69.8,80.1z"/>
	</g>
</g>
</svg>
