<?xml version="1.0" standalone="no"?>
<!DOCTYPE svg PUBLIC "-//W3C//DTD SVG 20010904//EN"
 "http://www.w3.org/TR/2001/REC-SVG-20010904/DTD/svg10.dtd">
<svg version="1.0" xmlns="http://www.w3.org/2000/svg"
 width="300.000000pt" height="300.000000pt" viewBox="0 0 300.000000 300.000000"
 preserveAspectRatio="xMidYMid meet">
<metadata>
Created by potrace 1.11, written by Peter Selinger 2001-2013
</metadata>
<g transform="translate(0.000000,300.000000) scale(0.100000,-0.100000)"
fill="#000000" stroke="none">
<path d="M1373 2985 c-34 -14 -113 -90 -113 -108 0 -6 86 -157 191 -335 l192
-324 -60 -60 -60 -59 -123 220 -123 220 -176 -169 c-97 -92 -258 -251 -358
-352 -211 -212 -224 -234 -231 -369 -7 -149 9 -187 263 -613 121 -204 285
-482 365 -619 202 -347 269 -417 400 -417 56 0 73 5 112 29 25 16 55 43 67 60
l23 31 -28 48 c-15 26 -99 168 -186 315 -88 148 -161 274 -164 281 -5 13 90
126 106 126 4 0 60 -95 125 -210 65 -116 121 -213 126 -215 7 -5 499 470 651
627 31 32 69 84 85 116 25 52 28 67 27 162 0 142 -15 178 -222 523 -93 155
-249 419 -347 587 -202 347 -218 371 -280 433 -80 81 -180 108 -262 72z m142
-64 c22 -10 63 -43 91 -73 50 -56 75 -96 426 -698 l184 -315 -71 0 c-62 0 -77
-4 -114 -28 -36 -24 -46 -27 -56 -15 -17 18 -635 1065 -635 1076 0 13 42 50
70 61 37 14 60 13 105 -8z m-26 -2497 c94 -161 171 -297 171 -303 0 -21 -74
-61 -113 -61 -91 0 -162 69 -284 276 -90 150 -99 186 -69 259 17 41 106 139
116 128 4 -4 84 -139 179 -299z"/>
</g>
</svg>
